<svg width="16" height="16" viewBox="0 0 16 16" fill="none" xmlns="http://www.w3.org/2000/svg">
<g clip-path="url(#clip0_269_11612)">
<path fill-rule="evenodd" clip-rule="evenodd" d="M12.3872 8.8226C12.8272 9.5858 13.0048 10.3618 12.9024 11.0674C12.7968 11.7826 12.4096 12.3666 11.8112 12.7122L7.99364 14.9154C7.64964 15.1138 7.28164 15.2082 6.91044 15.2082C5.95524 15.2082 4.97924 14.581 4.33764 13.469L0.70404 7.17779C0.26404 6.41459 0.0864399 5.63859 0.18884 4.93299C0.29284 4.21779 0.68164 3.63379 1.28004 3.28819L5.09764 1.08499C6.32324 0.377794 7.86084 0.985794 8.75364 2.53139L7.85924 3.04819C7.25604 2.00339 6.33284 1.56499 5.61444 1.98099L1.79684 4.18259C1.47204 4.36979 1.26884 4.68179 1.21124 5.0834C1.14244 5.55699 1.27684 6.10259 1.59844 6.66259L5.23044 12.9554C5.83364 14.0002 6.75684 14.4386 7.47684 14.0226L11.2944 11.8194C11.6192 11.6322 11.8208 11.3202 11.88 10.9186C11.9488 10.445 11.8144 9.89939 11.4928 9.3394L12.3872 8.8226ZM10.3871 5.44979C10.6895 5.75219 11.1807 5.75219 11.4831 5.44979C11.7855 5.14739 11.7855 4.65779 11.4831 4.35379C11.1807 4.05139 10.6911 4.05139 10.3871 4.35379C10.0847 4.65779 10.0847 5.14739 10.3871 5.44979ZM13.2271 5.44979C13.5295 5.75219 14.0207 5.75219 14.3231 5.44979C14.6255 5.14739 14.6255 4.65779 14.3231 4.35379C14.0207 4.05139 13.5311 4.05139 13.2271 4.35379C12.9247 4.65779 12.9247 5.14739 13.2271 5.44979ZM15.8399 3.90899V5.89459C15.8399 6.77299 14.9775 7.48339 13.9119 7.48339H13.1887H11.1919L8.09428 9.54899C7.55795 9.54899 7.82292 9.02574 8.15277 8.37437C8.47828 7.73156 8.86698 6.96398 8.61108 6.45139V3.90899C8.61108 3.03059 9.47348 2.32019 10.5391 2.32019H13.9135C14.9775 2.32019 15.8399 3.03059 15.8399 3.90899ZM10.6545 10.3042C10.7777 10.2338 10.7617 9.9746 10.6193 9.7282C10.4769 9.4818 10.2593 9.3394 10.1361 9.4098L6.11206 11.7346C5.98886 11.805 6.00486 12.0642 6.14726 12.3106C6.28966 12.5586 6.50566 12.6994 6.62886 12.629L10.6545 10.3042ZM7.34569 7.6082C7.48809 7.8546 7.54249 8.0898 7.46889 8.133L5.02889 9.541C4.95369 9.5842 4.77769 9.4194 4.63529 9.1714C4.49289 8.925 4.43849 8.6898 4.51209 8.6466L6.95049 7.2386C7.02569 7.197 7.20329 7.3618 7.34569 7.6082ZM7.03857 4.62419C7.16177 4.55379 7.14577 4.29619 7.00337 4.04819C6.86097 3.80179 6.64497 3.65939 6.52017 3.72979L2.49617 6.05459C2.37297 6.12499 2.38897 6.38419 2.53137 6.63059C2.67377 6.87859 2.88977 7.01939 3.01297 6.94899L7.03857 4.62419Z" fill="#1565C0"/>
</g>
<defs>
<clipPath id="clip0_269_11612">
<rect width="16" height="16" fill="white"/>
</clipPath>
</defs>
</svg>
