<svg width="24" height="24" viewBox="0 0 24 24" fill="none" xmlns="http://www.w3.org/2000/svg">
<path d="M21.5 12C21.5 12.414 21.164 12.75 20.75 12.75H4.56094L10.281 18.47C10.574 18.763 10.574 19.238 10.281 19.531C10.135 19.677 9.94294 19.751 9.75094 19.751C9.55894 19.751 9.36697 19.678 9.22097 19.531L2.22097 12.531C1.92797 12.238 1.92797 11.763 2.22097 11.47L9.22097 4.46999C9.51397 4.17699 9.98895 4.17699 10.2819 4.46999C10.5749 4.76299 10.5749 5.23803 10.2819 5.53103L4.56197 11.251H20.75C21.164 11.25 21.5 11.586 21.5 12Z" fill="#252528"/>
</svg>
