<svg width="16" height="16" viewBox="0 0 16 16" fill="none" xmlns="http://www.w3.org/2000/svg">
<g clip-path="url(#clip0_327_16323)">
<path fill-rule="evenodd" clip-rule="evenodd" d="M11.0077 10.4973L10.6148 10.5882C10.2399 10.6749 9.875 10.4371 9.79974 10.0569C9.72447 9.67674 9.96735 9.29826 10.3422 9.21153L12.2738 8.76464C12.6197 8.68462 12.9624 8.88113 13.0696 9.22089L13.5986 10.8973C13.7148 11.2655 13.5137 11.668 13.1495 11.7962C12.7852 11.9243 12.3957 11.7297 12.2795 11.3615L12.2215 11.1777C11.4119 12.278 10.3258 12.9528 9.44406 13.263C8.34794 13.6487 6.73405 13.7654 5.17736 12.9876C3.61589 12.2073 2.72983 10.801 2.38209 9.69899C2.26589 9.33073 2.46698 8.9283 2.83124 8.80012C3.1955 8.67194 3.58498 8.86656 3.70119 9.23481C3.96076 10.0574 4.64004 11.1305 5.81255 11.7164C6.98984 12.3046 8.2156 12.2137 9.02326 11.9295C9.64211 11.7117 10.4094 11.2425 11.0077 10.4973ZM5.61533 6.14853C5.9902 6.06181 6.23307 5.68332 6.1578 5.30317C6.08254 4.92301 5.71764 4.68514 5.34278 4.77186L4.94987 4.86277C5.54815 4.11759 6.31543 3.64838 6.93428 3.43061C7.74194 3.14641 8.9677 3.05543 10.145 3.6437C11.3175 4.22958 11.9968 5.30263 12.2564 6.12525C12.3726 6.49351 12.762 6.68813 13.1263 6.55995C13.4906 6.43177 13.6917 6.02933 13.5755 5.66108C13.2277 4.55904 12.3417 3.15274 10.7802 2.3725C9.22349 1.59465 7.6096 1.71133 6.51348 2.09704C5.63179 2.4073 4.54564 3.08203 3.73601 4.18238L3.67802 3.9986C3.56182 3.63035 3.17233 3.43573 2.80807 3.56391C2.44381 3.69209 2.24272 4.09453 2.35892 4.46278L2.8879 6.13918C2.99511 6.47894 3.33787 6.67544 3.68373 6.59543L5.61533 6.14853Z" fill="#1565C0"/>
</g>
<defs>
<clipPath id="clip0_327_16323">
<rect width="16" height="16" fill="white"/>
</clipPath>
</defs>
</svg>
