<svg width="24" height="24" viewBox="0 0 24 24" fill="none" xmlns="http://www.w3.org/2000/svg">
<path d="M20.4545 15.6465L19.3486 13.8005C18.9526 13.1405 18.7445 12.3855 18.7445 11.6165V8.9895C18.7445 5.2735 15.7186 2.24951 11.9996 2.24951C8.28055 2.24951 5.25454 5.2725 5.25454 8.9895V11.6165C5.25454 12.3855 5.04554 13.1405 4.65054 13.8005L3.54455 15.6465C3.15955 16.2875 3.15055 17.0595 3.51855 17.7095C3.88755 18.3615 4.55454 18.7505 5.30354 18.7505H9.28355C9.27555 18.8345 9.25055 18.9155 9.25055 19.0005C9.25055 20.5175 10.4835 21.7505 12.0005 21.7505C13.5175 21.7505 14.7505 20.5175 14.7505 19.0005C14.7505 18.9155 14.7255 18.8345 14.7175 18.7505H18.6976C19.4466 18.7505 20.1145 18.3615 20.4825 17.7104C20.8495 17.0594 20.8395 16.2875 20.4545 15.6465ZM13.2485 19.0005C13.2485 19.6895 12.6875 20.2505 11.9985 20.2505C11.3095 20.2505 10.7485 19.6895 10.7485 19.0005C10.7485 18.9155 10.7646 18.8325 10.7816 18.7505H13.2155C13.2325 18.8325 13.2485 18.9155 13.2485 19.0005ZM19.1755 16.9705C19.1275 17.0545 18.9866 17.2495 18.6956 17.2495H5.30154C5.01154 17.2495 4.86954 17.0545 4.82154 16.9705C4.77454 16.8865 4.67955 16.6655 4.82855 16.4175L5.93455 14.5715C6.47055 13.6785 6.75254 12.6565 6.75254 11.6165V8.9895C6.75254 6.1005 9.10554 3.74951 11.9975 3.74951C14.8895 3.74951 17.2425 6.1005 17.2425 8.9895V11.6165C17.2425 12.6565 17.5255 13.6785 18.0605 14.5715L19.1665 16.4175C19.3165 16.6655 19.2225 16.8865 19.1755 16.9705Z" fill="#252528"/>
</svg>
