<svg width="24" height="24" viewBox="0 0 24 24" fill="none" xmlns="http://www.w3.org/2000/svg">
<path fill-rule="evenodd" clip-rule="evenodd" d="M6.1 3C5.49249 3 5 3.49249 5 4.1V19.9C5 20.5075 5.4925 21 6.1 21H14C16.7614 21 19 18.7614 19 16C19 14.123 17.9657 12.4875 16.4359 11.6325C17.3991 10.7211 18 9.43071 18 8C18 5.23858 15.7614 3 13 3H6.1ZM13 11C14.6569 11 16 9.65685 16 8C16 6.34315 14.6569 5 13 5H7V11H13ZM7 13V19H14C15.6569 19 17 17.6569 17 16C17 14.3431 15.6569 13 14 13H7Z" fill="#252528"/>
</svg>
