<svg width="24" height="24" viewBox="0 0 24 24" fill="none" xmlns="http://www.w3.org/2000/svg">
<path d="M13.4544 7.4545C13.8938 7.01517 14.6061 7.01517 15.0454 7.4545C15.4794 7.88846 15.4847 8.58872 15.0614 9.02921L9.0731 16.5146C9.06446 16.5254 9.05522 16.5357 9.04544 16.5455C8.6061 16.9848 7.89379 16.9848 7.45445 16.5455L3.48478 12.5758C3.04544 12.1365 3.04544 11.4242 3.48478 10.9848C3.92412 10.5455 4.63643 10.5455 5.07577 10.9848L8.21605 14.1251L13.4246 7.48816C13.4339 7.47635 13.4438 7.46511 13.4544 7.4545Z" fill="#252528"/>
<path d="M12.0738 15.1649L13.4544 16.5455C13.8938 16.9848 14.6061 16.9848 15.0454 16.5455C15.0552 16.5357 15.0645 16.5254 15.0731 16.5146L21.0614 9.02921C21.4847 8.58872 21.4794 7.88846 21.0454 7.4545C20.6061 7.01517 19.8938 7.01517 19.4544 7.4545C19.4438 7.46511 19.4339 7.47635 19.4246 7.48816L14.216 14.1251L13.488 13.3971L12.0738 15.1649Z" fill="#252528"/>
</svg>
