<svg width="24" height="24" viewBox="0 0 24 24" fill="none" xmlns="http://www.w3.org/2000/svg">
<path fill-rule="evenodd" clip-rule="evenodd" d="M4.85482 7.87453C4.13082 9.12887 3.74979 10.5517 3.75001 12C3.75001 14.188 4.61921 16.2864 6.16638 17.8336C7.71356 19.3808 9.81198 20.25 12 20.25C14.1881 20.25 16.2865 19.3808 17.8336 17.8336C19.3808 16.2864 20.25 14.188 20.25 12C20.25 11.8011 20.329 11.6103 20.4697 11.4697C20.6103 11.329 20.8011 11.25 21 11.25C21.1989 11.25 21.3897 11.329 21.5303 11.4697C21.671 11.6103 21.75 11.8011 21.75 12C21.7497 14.1462 21.0413 16.2324 19.7345 17.935C18.4278 19.6376 16.5958 20.8615 14.5226 21.4167C12.4494 21.972 10.2509 21.8278 8.26813 21.0063C6.28531 20.1848 4.62896 18.732 3.55595 16.8732C2.48294 15.0144 2.05324 12.8535 2.33349 10.7256C2.61373 8.59776 3.58826 6.6218 5.10594 5.10422C6.62362 3.58664 8.59964 2.61223 10.7275 2.33212C12.8554 2.05202 15.0163 2.48186 16.875 3.55498C17.0459 3.65515 17.1702 3.81882 17.2208 4.0103C17.2714 4.20177 17.2442 4.40549 17.1452 4.577C17.0462 4.74852 16.8833 4.8739 16.6922 4.9258C16.5011 4.97769 16.2972 4.95187 16.125 4.85398C14.8708 4.12984 13.448 3.74864 11.9997 3.74869C10.5514 3.74875 9.12865 4.13007 7.87446 4.85431C6.62026 5.57855 5.57882 6.62019 4.85482 7.87453ZM23.1938 4.78735C23.156 4.87845 23.1007 4.96124 23.031 5.03097L12.531 15.531C12.4613 15.6008 12.3785 15.6562 12.2874 15.694C12.1963 15.7318 12.0986 15.7513 12 15.7513C11.9013 15.7513 11.8036 15.7318 11.7125 15.694C11.6214 15.6562 11.5386 15.6008 11.469 15.531L6.96897 11.031C6.89924 10.9612 6.84392 10.8785 6.80619 10.7873C6.76845 10.6962 6.74902 10.5986 6.74902 10.5C6.74902 10.4014 6.76845 10.3037 6.80619 10.2126C6.84392 10.1215 6.89924 10.0387 6.96897 9.96897C7.0387 9.89924 7.12149 9.84392 7.2126 9.80619C7.3037 9.76845 7.40136 9.74902 7.49997 9.74902C7.59859 9.74902 7.69624 9.76845 7.78735 9.80619C7.87846 9.84392 7.96124 9.89924 8.03097 9.96897L12 13.9395L21.969 3.96897C22.0387 3.89924 22.1215 3.84392 22.2126 3.80619C22.3037 3.76845 22.4014 3.74902 22.5 3.74902C22.5986 3.74902 22.6962 3.76845 22.7873 3.80619C22.8785 3.84392 22.9612 3.89924 23.031 3.96897C23.1007 4.0387 23.156 4.12149 23.1938 4.2126C23.2315 4.3037 23.2509 4.40136 23.2509 4.49997C23.2509 4.59859 23.2315 4.69624 23.1938 4.78735Z" fill="#252528"/>
</svg>
