<svg width="24" height="24" viewBox="0 0 24 24" fill="none" xmlns="http://www.w3.org/2000/svg">
<path fill-rule="evenodd" clip-rule="evenodd" d="M11.4697 16.2803C11.7626 16.5732 12.2374 16.5732 12.5303 16.2803L15.5303 13.2803C15.8232 12.9874 15.8232 12.5126 15.5303 12.2197C15.2374 11.9268 14.7626 11.9268 14.4697 12.2197L12.75 13.9393V8.25C12.75 7.83579 12.4142 7.5 12 7.5C11.5858 7.5 11.25 7.83579 11.25 8.25V13.9393L9.53033 12.2197C9.23744 11.9268 8.76256 11.9268 8.46967 12.2197C8.17678 12.5126 8.17678 12.9874 8.46967 13.2803L11.4697 16.2803Z" fill="#252528"/>
<path d="M6.60864 5.01273C7.96764 3.84068 9.86038 3 12 3C16.0354 3 19.3849 5.99916 19.7485 9.86847C22.1371 10.2062 24 12.2048 24 14.6591C24 17.3542 21.7535 19.5 19.0312 19.5H5.67188C2.56131 19.5 0 17.049 0 13.9773C0 11.3327 1.89879 9.14268 4.41334 8.5875C4.62719 7.29255 5.45978 6.00355 6.60864 5.01273ZM7.58829 6.14864C6.45346 7.12736 5.85938 8.30745 5.85938 9.23182V9.9039L5.19132 9.97733C3.09556 10.2077 1.5 11.929 1.5 13.9773C1.5 16.1774 3.34589 18 5.67188 18H19.0312C20.9689 18 22.5 16.4826 22.5 14.6591C22.5 12.8355 20.9689 11.3182 19.0312 11.3182H18.2812V10.5682C18.2812 7.2384 15.491 4.5 12 4.5C10.2564 4.5 8.70379 5.18659 7.58829 6.14864Z" fill="#252528"/>
</svg>
