<svg width="24" height="24" viewBox="0 0 24 24" fill="none" xmlns="http://www.w3.org/2000/svg">
<path d="M13.3892 4.12141C13.9331 4.21731 14.2963 4.73597 14.2004 5.27986L11.7693 19.0672C11.6734 19.6111 11.1547 19.9742 10.6108 19.8783C10.0669 19.7824 9.70376 19.2638 9.79966 18.7199L12.2307 4.93257C12.3266 4.38867 12.8453 4.0255 13.3892 4.12141Z" fill="#252528"/>
<path d="M7.20707 7.05013C7.5976 7.44065 7.5976 8.07382 7.20707 8.46434L3.67154 11.9999L7.20707 15.5354C7.5976 15.9259 7.5976 16.5591 7.20707 16.9496C6.81655 17.3401 6.18338 17.3401 5.79286 16.9496L1.55022 12.707C1.36268 12.5194 1.25732 12.2651 1.25732 11.9999C1.25732 11.7347 1.36268 11.4803 1.55022 11.2928L5.79286 7.05013C6.18338 6.65961 6.81655 6.65961 7.20707 7.05013Z" fill="#252528"/>
<path d="M16.7929 8.46434C16.4023 8.07382 16.4023 7.44065 16.7929 7.05013C17.1834 6.65961 17.8165 6.65961 18.2071 7.05013L22.4497 11.2928C22.6372 11.4803 22.7426 11.7347 22.7426 11.9999C22.7426 12.2651 22.6372 12.5194 22.4497 12.707L18.2071 16.9496C17.8165 17.3401 17.1834 17.3401 16.7929 16.9496C16.4023 16.5591 16.4023 15.9259 16.7929 15.5354L20.3284 11.9999L16.7929 8.46434Z" fill="#252528"/>
</svg>
