<svg width="24" height="24" viewBox="0 0 24 24" fill="none" xmlns="http://www.w3.org/2000/svg">
<path d="M21.4074 11.3563L20.1849 11.1594C20.1059 11.1461 20.0333 11.1079 19.9776 11.0504C19.922 10.9929 19.8862 10.9191 19.8755 10.8397C19.852 10.6897 19.8286 10.5393 19.7958 10.3939C19.7799 10.3159 19.7891 10.2349 19.8219 10.1624C19.8547 10.0898 19.9095 10.0295 19.9786 9.98988L21.0609 9.38895C21.1429 9.34706 21.2067 9.27667 21.2403 9.19104C21.274 9.1054 21.2752 9.01042 21.2438 8.92395L21.0563 8.40832C21.0249 8.32161 20.9625 8.24964 20.8811 8.20634C20.7996 8.16303 20.7051 8.15149 20.6156 8.17395L19.402 8.40832C19.3231 8.42359 19.2414 8.41311 19.1689 8.37843C19.0964 8.34374 19.037 8.28668 18.9994 8.21566C18.9291 8.08441 18.8541 7.95301 18.7744 7.82145C18.7323 7.75304 18.7128 7.67312 18.7187 7.59302C18.7246 7.51293 18.7556 7.43672 18.8072 7.3752L19.6177 6.44051C19.6805 6.37363 19.7167 6.28602 19.7193 6.19427C19.7219 6.10253 19.6907 6.01302 19.6317 5.9427L19.2806 5.52082C19.2221 5.44987 19.1393 5.4033 19.0482 5.39021C18.9572 5.37712 18.8646 5.39845 18.7884 5.45004L17.7249 6.08895C17.6565 6.12946 17.577 6.14721 17.4979 6.13963C17.4188 6.13205 17.3441 6.09952 17.2847 6.04676C17.1722 5.94785 17.055 5.84941 16.9378 5.7552C16.8755 5.70567 16.8305 5.6376 16.8095 5.56082C16.7884 5.48405 16.7923 5.40257 16.8206 5.32816L17.2613 4.16801C17.2988 4.08384 17.3039 3.98881 17.2759 3.90106C17.2478 3.8133 17.1883 3.73896 17.1089 3.69223L16.6308 3.4152C16.551 3.36988 16.4574 3.3554 16.3676 3.37449C16.2778 3.39359 16.1982 3.44492 16.1438 3.51879L15.3638 4.49566C15.3202 4.55715 15.2572 4.60215 15.1849 4.62341C15.1126 4.64467 15.0352 4.64095 14.9653 4.61285C14.9653 4.61285 14.7028 4.50504 14.5059 4.43895C14.4304 4.41378 14.3649 4.36524 14.3188 4.30036C14.2727 4.23547 14.2484 4.1576 14.2495 4.07801L14.2683 2.83816C14.2738 2.74595 14.2454 2.6549 14.1884 2.58219C14.1314 2.50948 14.0498 2.46014 13.9589 2.44348L13.4156 2.34973C13.3247 2.33398 13.2311 2.35202 13.1526 2.40045C13.074 2.44889 13.0159 2.52437 12.9891 2.6127L12.5859 3.78691C12.5601 3.8626 12.5107 3.92803 12.445 3.97366C12.3793 4.01928 12.3007 4.04271 12.2208 4.04051H11.7614C11.6816 4.04219 11.6032 4.01857 11.5377 3.97302C11.4721 3.92746 11.4226 3.86232 11.3963 3.78691L10.9931 2.6127C10.9664 2.52437 10.9082 2.44889 10.8296 2.40045C10.7511 2.35202 10.6575 2.33398 10.5666 2.34973L10.0233 2.44348C9.93242 2.46014 9.85079 2.50948 9.7938 2.58219C9.73681 2.6549 9.70839 2.74595 9.71391 2.83816L9.73266 4.07801C9.7338 4.15779 9.70945 4.23586 9.66317 4.30085C9.61689 4.36585 9.55108 4.41439 9.47532 4.43941C9.36751 4.4816 9.13313 4.57113 9.02063 4.61332C8.88938 4.6602 8.7347 4.6227 8.60813 4.47691L7.83423 3.52348C7.77951 3.44992 7.69975 3.39896 7.61001 3.38022C7.52027 3.36147 7.42678 3.37625 7.3472 3.42176L6.86907 3.69879C6.78946 3.74464 6.72962 3.81831 6.70106 3.90562C6.67251 3.99294 6.67725 4.08773 6.71438 4.17176L7.15501 5.33191C7.18289 5.40637 7.18657 5.48773 7.16553 5.5644C7.14449 5.64107 7.0998 5.70915 7.03782 5.75895C6.92063 5.8527 6.80345 5.9516 6.69095 6.05051C6.63152 6.10327 6.55686 6.1358 6.47775 6.14338C6.39864 6.15096 6.31916 6.13321 6.25079 6.0927L5.20266 5.44395C5.12614 5.39359 5.03383 5.37299 4.94315 5.38603C4.85248 5.39907 4.76971 5.44485 4.71048 5.51473L4.35938 5.9366C4.3004 6.00692 4.26926 6.09643 4.27185 6.18818C4.27444 6.27993 4.31059 6.36754 4.37345 6.43441L5.18391 7.3691C5.23661 7.43008 5.26826 7.50642 5.27417 7.5868C5.28008 7.66718 5.25994 7.74732 5.21673 7.81535C5.13704 7.94035 5.06204 8.07176 4.99173 8.20957C4.9535 8.28004 4.89397 8.33662 4.82165 8.37122C4.74933 8.40582 4.66793 8.41667 4.58907 8.40223L3.37548 8.16785C3.28607 8.14605 3.19176 8.15788 3.11051 8.2011C3.02926 8.24431 2.96674 8.3159 2.93485 8.40223L2.74735 8.91785C2.71589 9.00432 2.7171 9.09931 2.75077 9.18494C2.78444 9.27058 2.84824 9.34096 2.93016 9.38285L4.0111 9.98426C4.08089 10.0231 4.13634 10.0833 4.16926 10.1561C4.20218 10.2288 4.21083 10.3103 4.19391 10.3883C4.16579 10.5383 4.13766 10.6841 4.11423 10.8341C4.10297 10.9132 4.06699 10.9867 4.01142 11.0442C3.95585 11.1016 3.88355 11.1399 3.80485 11.1538L2.58235 11.3507C2.49138 11.3619 2.40754 11.4057 2.34636 11.4739C2.28517 11.5422 2.25078 11.6303 2.24954 11.7219V12.2713C2.2484 12.3636 2.28198 12.453 2.34361 12.5218C2.40524 12.5905 2.49045 12.6336 2.58235 12.6425L3.80485 12.8394C3.88379 12.8527 3.9564 12.8909 4.01207 12.9484C4.06773 13.0059 4.10353 13.0798 4.11423 13.1591C4.13766 13.3091 4.1611 13.4596 4.19391 13.6049C4.20978 13.6829 4.20065 13.7639 4.16783 13.8365C4.13502 13.909 4.08017 13.9694 4.0111 14.0089L2.92876 14.6108C2.84683 14.6527 2.78303 14.7231 2.74937 14.8087C2.7157 14.8944 2.71448 14.9894 2.74595 15.0758L2.93345 15.5914C2.96481 15.6782 3.02725 15.7501 3.10865 15.7934C3.19006 15.8367 3.28464 15.8483 3.37407 15.8258L4.58766 15.5914C4.66657 15.5762 4.74829 15.5867 4.82078 15.6213C4.89327 15.656 4.95271 15.7131 4.99032 15.7841C5.06063 15.9154 5.13563 16.0468 5.21532 16.1783C5.25739 16.2467 5.27686 16.3266 5.27097 16.4067C5.26508 16.4868 5.23413 16.5631 5.18251 16.6246L4.37204 17.5602C4.30918 17.6271 4.27303 17.7147 4.27044 17.8064C4.26785 17.8982 4.29899 17.9877 4.35798 18.058L4.70907 18.4799C4.76758 18.5508 4.85045 18.5974 4.94147 18.6105C5.0325 18.6236 5.12513 18.6023 5.20126 18.5507L6.26485 17.9118C6.33322 17.8712 6.4127 17.8535 6.49181 17.8611C6.57092 17.8687 6.64558 17.9012 6.70501 17.9539C6.81751 18.0529 6.9347 18.1513 7.05188 18.2455C7.11422 18.295 7.15917 18.3631 7.18024 18.4399C7.20131 18.5167 7.1974 18.5981 7.16907 18.6725L6.72845 19.8327C6.69155 19.917 6.68692 20.0119 6.71544 20.0993C6.74397 20.1868 6.80365 20.2607 6.88313 20.3071L7.36126 20.5841C7.44105 20.6294 7.53469 20.6439 7.62445 20.6248C7.7142 20.6057 7.79384 20.5544 7.84829 20.4805L8.63532 19.513C8.73376 19.3911 8.89313 19.3396 9.0197 19.3911C9.17907 19.4568 9.28688 19.4943 9.48376 19.5604C9.55952 19.5854 9.62533 19.6339 9.67161 19.6989C9.71789 19.7639 9.74224 19.842 9.7411 19.9218L9.72235 21.1616C9.71683 21.2538 9.74525 21.3449 9.80224 21.4176C9.85923 21.4903 9.94086 21.5396 10.0317 21.5563L10.575 21.65C10.6659 21.6658 10.7595 21.6478 10.8381 21.5993C10.9166 21.5509 10.9748 21.4754 11.0016 21.3871L11.4047 20.2152C11.4306 20.1395 11.4799 20.0741 11.5456 20.0285C11.6113 19.9828 11.6899 19.9594 11.7699 19.9616H12.2292C12.3091 19.9599 12.3874 19.9835 12.453 20.0291C12.5186 20.0746 12.5681 20.1398 12.5944 20.2152L12.9975 21.3871C13.0243 21.4754 13.0824 21.5509 13.161 21.5993C13.2396 21.6478 13.3331 21.6658 13.4241 21.65L13.9674 21.5563C14.0582 21.5396 14.1398 21.4903 14.1968 21.4176C14.2538 21.3449 14.2822 21.2538 14.2767 21.1616L14.258 19.9218C14.2568 19.842 14.2812 19.7639 14.3275 19.6989C14.3738 19.6339 14.4396 19.5854 14.5153 19.5604C14.7122 19.4943 14.8434 19.4427 14.9653 19.3958C15.0872 19.3489 15.2372 19.3489 15.3544 19.4943L16.1513 20.4758C16.206 20.5499 16.2861 20.6013 16.3762 20.6202C16.4664 20.639 16.5603 20.624 16.6402 20.578L17.1183 20.301C17.1983 20.2552 17.2585 20.1813 17.2871 20.0936C17.3156 20.0059 17.3106 19.9108 17.273 19.8266L16.8324 18.6664C16.8045 18.5919 16.8008 18.5105 16.8219 18.4338C16.8429 18.357 16.8876 18.2889 16.9495 18.2389C17.0667 18.1452 17.1839 18.0468 17.2964 17.9479C17.3558 17.8951 17.4305 17.8626 17.5096 17.855C17.5887 17.8474 17.6682 17.8651 17.7366 17.9057L18.7964 18.5464C18.8729 18.5968 18.9653 18.6174 19.0559 18.6044C19.1466 18.5913 19.2294 18.5455 19.2886 18.4757L19.6397 18.0538C19.6987 17.9835 19.7298 17.894 19.7272 17.8022C19.7246 17.7105 19.6885 17.6229 19.6256 17.556L18.8152 16.6213C18.7625 16.5603 18.7308 16.484 18.7249 16.4036C18.719 16.3232 18.7391 16.2431 18.7824 16.175C18.862 16.0485 18.937 15.9171 19.0074 15.7808C19.0456 15.7104 19.1051 15.6538 19.1774 15.6192C19.2497 15.5846 19.3312 15.5737 19.41 15.5882L20.6236 15.8225C20.713 15.8443 20.8073 15.8325 20.8886 15.7893C20.9698 15.7461 21.0323 15.6745 21.0642 15.5882L21.2517 15.0725C21.2832 14.9861 21.282 14.8911 21.2483 14.8054C21.2146 14.7198 21.1508 14.6494 21.0689 14.6075L19.9866 14.0066C19.9168 13.9678 19.8613 13.9075 19.8284 13.8348C19.7955 13.762 19.7868 13.6806 19.8038 13.6025C19.8319 13.4525 19.86 13.3068 19.8834 13.1568C19.8947 13.0776 19.9307 13.0041 19.9863 12.9467C20.0418 12.8893 20.1141 12.8509 20.1928 12.8371L21.4153 12.6402C21.5063 12.629 21.5901 12.5852 21.6513 12.517C21.7125 12.4487 21.7469 12.3606 21.7481 12.2689V11.7186C21.743 11.6278 21.7061 11.5417 21.6437 11.4754C21.5814 11.4091 21.4977 11.367 21.4074 11.3563ZM11.9995 5.24988C13.4967 5.24925 14.9515 5.74701 16.1345 6.66467C17.3175 7.58234 18.1613 8.86769 18.533 10.318C18.5606 10.4286 18.5627 10.5441 18.539 10.6556C18.5154 10.7671 18.4666 10.8718 18.3964 10.9616C18.3262 11.0514 18.2365 11.1241 18.134 11.174C18.0315 11.224 17.919 11.2499 17.805 11.2499H12.8719C12.7394 11.2499 12.6093 11.2148 12.4947 11.1482C12.3802 11.0816 12.2854 10.9858 12.2199 10.8707L9.77767 6.57176C9.7208 6.47182 9.68767 6.36013 9.68085 6.24535C9.67403 6.13056 9.69369 6.01574 9.73832 5.90977C9.78295 5.80379 9.85135 5.7095 9.93823 5.63417C10.0251 5.55884 10.1282 5.50451 10.2394 5.47535C10.8139 5.32461 11.4056 5.24883 11.9995 5.24988ZM5.24954 11.9999C5.2487 11.0961 5.42937 10.2013 5.78084 9.36864C6.13232 8.53598 6.64743 7.78238 7.29563 7.15254C7.37748 7.07151 7.4769 7.01042 7.58616 6.974C7.69543 6.93759 7.81162 6.92683 7.92572 6.94256C8.03981 6.95829 8.14875 7.00009 8.24409 7.06471C8.33943 7.12933 8.41861 7.21504 8.47548 7.3152L10.9242 11.6249C10.9889 11.7382 11.023 11.8664 11.023 11.9968C11.023 12.1273 10.9889 12.2555 10.9242 12.3688L8.45532 16.6672C8.39801 16.7671 8.31847 16.8524 8.22287 16.9166C8.12727 16.9808 8.01817 17.0221 7.90404 17.0373C7.78991 17.0525 7.6738 17.0413 7.56472 17.0044C7.45563 16.9676 7.3565 16.9061 7.27501 16.8247C6.63312 16.1959 6.12331 15.4452 5.77549 14.6167C5.42768 13.7881 5.24886 12.8985 5.24954 11.9999ZM11.9995 18.7499C11.3952 18.7514 10.7933 18.6734 10.2094 18.5179C10.0982 18.4883 9.99527 18.4336 9.90861 18.3579C9.82196 18.2822 9.75388 18.1875 9.70965 18.0813C9.66542 17.9751 9.64623 17.8601 9.65355 17.7453C9.66087 17.6305 9.69452 17.5188 9.75188 17.4191L12.2166 13.1277C12.2825 13.0135 12.3773 12.9187 12.4916 12.8529C12.6058 12.7871 12.7354 12.7525 12.8672 12.7527H17.8074C17.9213 12.7527 18.0338 12.7787 18.1362 12.8287C18.2386 12.8787 18.3283 12.9513 18.3984 13.0412C18.4685 13.131 18.5173 13.2356 18.5409 13.3471C18.5646 13.4586 18.5625 13.574 18.5349 13.6846C18.1625 15.1346 17.3181 16.4195 16.1348 17.3366C14.9515 18.2537 13.4966 18.7509 11.9995 18.7499Z" fill="#252528"/>
</svg>
