<svg width="24" height="24" viewBox="0 0 24 24" fill="none" xmlns="http://www.w3.org/2000/svg">
<path fill-rule="evenodd" clip-rule="evenodd" d="M9.70138 2.35215C9.82658 1.85133 10.2766 1.5 10.7928 1.5H13.2072C13.7234 1.5 14.1734 1.85133 14.2986 2.35215L14.767 4.22569C14.9611 4.29479 15.1519 4.37094 15.339 4.45384L17.2565 3.4951C17.6896 3.27855 18.2127 3.36343 18.5551 3.70584L20.2942 5.44492C20.6366 5.78732 20.7215 6.31042 20.5049 6.74353L19.5462 8.66101C19.5993 8.7809 19.6496 8.90231 19.6971 9.02514L21.7308 9.70302C22.1901 9.85614 22.5 10.286 22.5 10.7703V13.2297C22.5 13.714 22.1901 14.1439 21.7308 14.297L19.6971 14.9749C19.6496 15.0977 19.5993 15.2191 19.5462 15.339L20.5049 17.2565C20.7215 17.6896 20.6366 18.2127 20.2942 18.5551L18.5551 20.2942C18.2127 20.6366 17.6896 20.7215 17.2565 20.5049L15.339 19.5462C15.2191 19.5993 15.0977 19.6496 14.9749 19.6971L14.297 21.7308C14.1439 22.1901 13.714 22.5 13.2297 22.5H10.7703C10.286 22.5 9.85614 22.1901 9.70301 21.7308L9.02514 19.6971C8.83303 19.6229 8.64441 19.5416 8.4596 19.4537L6.80331 20.4474C6.36065 20.713 5.79404 20.6433 5.42901 20.2782L3.72176 18.571C3.35673 18.206 3.28698 17.6394 3.55258 17.1967L4.54635 15.5404C4.42691 15.2894 4.31976 15.0313 4.22569 14.767L2.35215 14.2986C1.85133 14.1734 1.5 13.7234 1.5 13.2072L1.5 10.7928C1.5 10.2766 1.85133 9.82659 2.35215 9.70138L4.22569 9.233C4.31976 8.9687 4.42691 8.71064 4.54634 8.4596L3.55257 6.80331C3.28697 6.36065 3.35673 5.79404 3.72175 5.42901L5.429 3.72176C5.79403 3.35673 6.36065 3.28698 6.80331 3.55258L8.45959 4.54635C8.71063 4.42691 8.96869 4.31976 9.23299 4.22569L9.70138 2.35215ZM11.0856 3L10.6396 4.78405C10.5421 5.17398 10.2493 5.46801 9.89011 5.58609C9.56792 5.692 9.25639 5.82156 8.95754 5.97275C8.61991 6.14355 8.20473 6.14271 7.85995 5.93585L6.28263 4.98946L4.98945 6.28264L5.93584 7.85996C6.14271 8.20474 6.14355 8.61991 5.97274 8.95755C5.82156 9.25639 5.692 9.56793 5.58609 9.89011C5.46801 10.2493 5.17398 10.5421 4.78405 10.6396L3 11.0856L3 12.9144L4.78405 13.3604C5.17398 13.4579 5.46801 13.7507 5.58609 14.1099C5.692 14.4321 5.82156 14.7436 5.97275 15.0425C6.14355 15.3801 6.14271 15.7953 5.93585 16.14L4.98946 17.7174L6.28264 19.0106L7.85996 18.0642C8.20474 17.8573 8.61992 17.8565 8.95755 18.0273C9.19731 18.1486 9.44524 18.2559 9.70027 18.3483C10.017 18.4631 10.2795 18.7167 10.3924 19.0556L11.0406 21H12.9594L13.6076 19.0556C13.7205 18.7167 13.983 18.4631 14.2997 18.3483C14.4913 18.2789 14.6788 18.2011 14.8618 18.1153C15.1671 17.9721 15.5323 17.9657 15.852 18.1256L17.6855 19.0424L19.0424 17.6856L18.1256 15.8521C17.9657 15.5323 17.9721 15.1671 18.1153 14.8618C18.2011 14.6788 18.2789 14.4913 18.3483 14.2997C18.4631 13.983 18.7167 13.7205 19.0556 13.6076L21 12.9594V11.0406L19.0556 10.3924C18.7167 10.2795 18.4631 10.017 18.3483 9.70027C18.2789 9.50875 18.2011 9.32123 18.1153 9.13817C17.9721 8.83289 17.9657 8.46774 18.1256 8.14796L19.0424 6.31446L17.6855 4.95762L15.8521 5.87437C15.5323 6.03426 15.1671 6.02788 14.8618 5.88474C14.6187 5.77074 14.3677 5.67084 14.1099 5.58609C13.7507 5.468 13.4579 5.17397 13.3604 4.78405L12.9144 3H11.0856ZM12 9C10.3431 9 9 10.3431 9 12C9 13.6569 10.3431 15 12 15C13.6569 15 15 13.6569 15 12C15 10.3431 13.6569 9 12 9ZM7.5 12C7.5 9.51472 9.51472 7.5 12 7.5C14.4853 7.5 16.5 9.51472 16.5 12C16.5 14.4853 14.4853 16.5 12 16.5C9.51472 16.5 7.5 14.4853 7.5 12Z" fill="#252528"/>
</svg>
