<svg width="24" height="24" viewBox="0 0 24 24" fill="none" xmlns="http://www.w3.org/2000/svg">
<path fill-rule="evenodd" clip-rule="evenodd" d="M7.2002 3.00001C7.2002 3.99413 8.00608 4.80001 9.0002 4.80001C9.99431 4.80001 10.8002 3.99413 10.8002 3.00001C10.8002 2.0059 9.99431 1.20001 9.0002 1.20001C8.00608 1.20001 7.2002 2.0059 7.2002 3.00001ZM13.2002 3.00001C13.2002 3.99413 14.0061 4.80001 15.0002 4.80001C15.9943 4.80001 16.8002 3.99413 16.8002 3.00001C16.8002 2.0059 15.9943 1.20001 15.0002 1.20001C14.0061 1.20001 13.2002 2.0059 13.2002 3.00001ZM9.0002 10.8C8.00608 10.8 7.2002 9.99413 7.2002 9.00002C7.2002 8.0059 8.00608 7.20002 9.0002 7.20002C9.99431 7.20002 10.8002 8.0059 10.8002 9.00002C10.8002 9.99413 9.99431 10.8 9.0002 10.8ZM13.2002 9.00002C13.2002 9.99413 14.0061 10.8 15.0002 10.8C15.9943 10.8 16.8002 9.99413 16.8002 9.00002C16.8002 8.0059 15.9943 7.20002 15.0002 7.20002C14.0061 7.20002 13.2002 8.0059 13.2002 9.00002ZM9.0002 16.8C8.00608 16.8 7.2002 15.9941 7.2002 15C7.2002 14.0059 8.00608 13.2 9.0002 13.2C9.99431 13.2 10.8002 14.0059 10.8002 15C10.8002 15.9941 9.99431 16.8 9.0002 16.8ZM7.2002 21C7.2002 21.9941 8.00608 22.8 9.0002 22.8C9.99431 22.8 10.8002 21.9941 10.8002 21C10.8002 20.0059 9.99431 19.2 9.0002 19.2C8.00608 19.2 7.2002 20.0059 7.2002 21ZM15.0002 16.8C14.0061 16.8 13.2002 15.9941 13.2002 15C13.2002 14.0059 14.0061 13.2 15.0002 13.2C15.9943 13.2 16.8002 14.0059 16.8002 15C16.8002 15.9941 15.9943 16.8 15.0002 16.8ZM13.2002 21C13.2002 21.9941 14.0061 22.8 15.0002 22.8C15.9943 22.8 16.8002 21.9941 16.8002 21C16.8002 20.0059 15.9943 19.2 15.0002 19.2C14.0061 19.2 13.2002 20.0059 13.2002 21Z" fill="#252528"/>
</svg>
