<svg width="16" height="16" viewBox="0 0 16 16" fill="none" xmlns="http://www.w3.org/2000/svg">
<g clip-path="url(#clip0_305_18491)">
<path fill-rule="evenodd" clip-rule="evenodd" d="M12.687 2.0207C12.8585 1.84925 13.091 1.75293 13.3335 1.75293C13.576 1.75293 13.8085 1.84925 13.9799 2.0207C14.1514 2.19215 14.2477 2.42468 14.2477 2.66714C14.2477 2.90961 14.1514 3.14214 13.9799 3.31359L7.74454 9.549L6.02068 9.97996L6.45164 8.2561L12.687 2.0207ZM13.3335 0.75293C12.8258 0.75293 12.3389 0.954605 11.9799 1.31359L5.64661 7.64692C5.58253 7.711 5.53707 7.79129 5.51509 7.87921L4.84842 10.5459C4.80583 10.7163 4.85575 10.8965 4.97994 11.0207C5.10413 11.1449 5.28438 11.1948 5.45476 11.1522L8.12143 10.4855C8.20935 10.4636 8.28964 10.4181 8.35372 10.354L14.687 4.0207C15.046 3.66171 15.2477 3.17482 15.2477 2.66714C15.2477 2.15946 15.046 1.67257 14.687 1.31359C14.3281 0.954605 13.8412 0.75293 13.3335 0.75293ZM2.66683 2.16713C2.1806 2.16713 1.71428 2.36029 1.37047 2.70411C1.02665 3.04792 0.833496 3.51424 0.833496 4.00047V13.3338C0.833496 13.82 1.02665 14.2863 1.37047 14.6302C1.71428 14.974 2.1806 15.1671 2.66683 15.1671H12.0002C12.4864 15.1671 12.9527 14.974 13.2965 14.6302C13.6403 14.2863 13.8335 13.82 13.8335 13.3338V8.66713C13.8335 8.39099 13.6096 8.16713 13.3335 8.16713C13.0574 8.16713 12.8335 8.39099 12.8335 8.66713V13.3338C12.8335 13.5548 12.7457 13.7668 12.5894 13.9231C12.4331 14.0793 12.2212 14.1671 12.0002 14.1671H2.66683C2.44582 14.1671 2.23385 14.0793 2.07757 13.9231C1.92129 13.7668 1.8335 13.5548 1.8335 13.3338V4.00047C1.8335 3.77945 1.92129 3.56749 2.07757 3.41121C2.23385 3.25493 2.44582 3.16713 2.66683 3.16713H7.3335C7.60964 3.16713 7.8335 2.94328 7.8335 2.66713C7.8335 2.39099 7.60964 2.16713 7.3335 2.16713H2.66683Z" fill="#1565C0"/>
</g>
<defs>
<clipPath id="clip0_305_18491">
<rect width="16" height="16" fill="white"/>
</clipPath>
</defs>
</svg>
