<svg width="24" height="24" viewBox="0 0 24 24" fill="none" xmlns="http://www.w3.org/2000/svg">
<g clip-path="url(#clip0_257_3949)">
<path fill-rule="evenodd" clip-rule="evenodd" d="M1.70711 7.70711C1.51957 7.89464 1.26522 8 1 8C0.734784 8 0.48043 7.89464 0.292893 7.70711C0.105357 7.51957 0 7.26522 0 7V5C0.00158786 3.67441 0.528882 2.40356 1.46622 1.46622C2.40356 0.528882 3.67441 0.00158786 5 0H7C7.26522 0 7.51957 0.105357 7.70711 0.292893C7.89464 0.48043 8 0.734784 8 1C8 1.26522 7.89464 1.51957 7.70711 1.70711C7.51957 1.89464 7.26522 2 7 2H5C4.20435 2 3.44129 2.31607 2.87868 2.87868C2.31607 3.44129 2 4.20435 2 5V7C2 7.26522 1.89464 7.51957 1.70711 7.70711ZM17.9445 9.90978C17.3689 10.2944 16.6922 10.4996 16 10.4996C15.0717 10.4996 14.1815 10.1309 13.5251 9.47451C12.8687 8.81813 12.5 7.92789 12.5 6.99964C12.5 6.3074 12.7053 5.63071 13.0899 5.05514C13.4744 4.47957 14.0211 4.03096 14.6606 3.76606C15.3001 3.50115 16.0039 3.43184 16.6828 3.56689C17.3617 3.70194 17.9854 4.03528 18.4749 4.52476C18.9644 5.01425 19.2977 5.63789 19.4327 6.31682C19.5678 6.99575 19.4985 7.69949 19.2336 8.33903C18.9687 8.97857 18.5201 9.5252 17.9445 9.90978ZM16.8334 5.75243C16.5867 5.58761 16.2967 5.49964 16 5.49964C15.6022 5.49964 15.2206 5.65767 14.9393 5.93898C14.658 6.22028 14.5 6.60181 14.5 6.99964C14.5 7.29631 14.588 7.58632 14.7528 7.83299C14.9176 8.07967 15.1519 8.27192 15.426 8.38546C15.7001 8.49899 16.0017 8.52869 16.2926 8.47081C16.5836 8.41294 16.8509 8.27007 17.0607 8.0603C17.2704 7.85052 17.4133 7.58324 17.4712 7.29227C17.5291 7.0013 17.4993 6.6997 17.3858 6.42561C17.2723 6.15152 17.08 5.91725 16.8334 5.75243ZM18.5554 18.8311C18.391 18.941 18.1977 18.9997 17.9999 18.9997C17.7347 18.9997 17.4804 18.8943 17.2929 18.7067L11.1209 12.5357C10.5497 11.9898 9.79002 11.6852 8.99992 11.6852C8.20982 11.6852 7.45014 11.9898 6.87892 12.5357L4.70692 14.7067C4.51832 14.8889 4.26571 14.9897 4.00352 14.9874C3.74132 14.9851 3.49051 14.8799 3.3051 14.6945C3.11969 14.5091 3.01452 14.2583 3.01224 13.9961C3.00997 13.7339 3.11076 13.4813 3.29292 13.2927L5.46492 11.1217C6.40256 10.1844 7.6741 9.65778 8.99992 9.65778C10.3257 9.65778 11.5973 10.1844 12.5349 11.1217L18.7069 17.2927C18.8467 17.4326 18.9419 17.6107 18.9805 17.8047C19.0191 17.9986 18.9993 18.1997 18.9236 18.3824C18.8479 18.5651 18.7198 18.7212 18.5554 18.8311ZM23 16.0003C22.7348 16.0003 22.4804 16.1057 22.2929 16.2932C22.1053 16.4807 22 16.7351 22 17.0003V19.0003C22 19.7959 21.6839 20.559 21.1213 21.1216C20.5587 21.6842 19.7956 22.0003 19 22.0003H17C16.7348 22.0003 16.4804 22.1056 16.2929 22.2932C16.1054 22.4807 16 22.7351 16 23.0003C16 23.2655 16.1054 23.5199 16.2929 23.7074C16.4804 23.8949 16.7348 24.0003 17 24.0003H19C20.3256 23.9987 21.5964 23.4714 22.5338 22.5341C23.4711 21.5967 23.9984 20.3259 24 19.0003V17.0003C24 16.7351 23.8946 16.4807 23.7071 16.2932C23.5196 16.1057 23.2652 16.0003 23 16.0003ZM7 22.0003H5C4.20435 22.0003 3.44129 21.6842 2.87868 21.1216C2.31607 20.559 2 19.7959 2 19.0003V17.0003C2 16.7351 1.89464 16.4807 1.70711 16.2932C1.51957 16.1057 1.26522 16.0003 1 16.0003C0.734784 16.0003 0.48043 16.1057 0.292893 16.2932C0.105357 16.4807 0 16.7351 0 17.0003V19.0003C0.00158786 20.3259 0.528882 21.5967 1.46622 22.5341C2.40356 23.4714 3.67441 23.9987 5 24.0003H7C7.26522 24.0003 7.51957 23.8949 7.70711 23.7074C7.89464 23.5199 8 23.2655 8 23.0003C8 22.7351 7.89464 22.4807 7.70711 22.2932C7.51957 22.1056 7.26522 22.0003 7 22.0003ZM17 0H19C20.3256 0.00158786 21.5964 0.528882 22.5338 1.46622C23.4711 2.40356 23.9984 3.67441 24 5V7C24 7.26522 23.8946 7.51957 23.7071 7.70711C23.5196 7.89464 23.2652 8 23 8C22.7348 8 22.4804 7.89464 22.2929 7.70711C22.1053 7.51957 22 7.26522 22 7V5C22 4.20435 21.6839 3.44129 21.1213 2.87868C20.5587 2.31607 19.7956 2 19 2H17C16.7348 2 16.4804 1.89464 16.2929 1.70711C16.1054 1.51957 16 1.26522 16 1C16 0.734784 16.1054 0.48043 16.2929 0.292893C16.4804 0.105357 16.7348 0 17 0Z" fill="#252528"/>
</g>
<defs>
<clipPath id="clip0_257_3949">
<rect width="24" height="24" fill="white"/>
</clipPath>
</defs>
</svg>
