<svg width="24" height="24" viewBox="0 0 24 24" fill="none" xmlns="http://www.w3.org/2000/svg">
<path d="M9 15.75C9 15.3358 9.33579 15 9.75 15H14.25C14.6642 15 15 15.3358 15 15.75C15 16.1642 14.6642 16.5 14.25 16.5H9.75C9.33579 16.5 9 16.1642 9 15.75Z" fill="#65666A"/>
<path d="M6 11.25C6 10.8358 6.33579 10.5 6.75 10.5H17.25C17.6642 10.5 18 10.8358 18 11.25C18 11.6642 17.6642 12 17.25 12H6.75C6.33579 12 6 11.6642 6 11.25Z" fill="#65666A"/>
<path d="M3 6.75C3 6.33579 3.33579 6 3.75 6H20.25C20.6642 6 21 6.33579 21 6.75C21 7.16421 20.6642 7.5 20.25 7.5H3.75C3.33579 7.5 3 7.16421 3 6.75Z" fill="#65666A"/>
</svg>
