<svg width="24" height="24" viewBox="0 0 24 24" fill="none" xmlns="http://www.w3.org/2000/svg">
<path fill-rule="evenodd" clip-rule="evenodd" d="M5.88517 1.9512H20.9932C22.5196 1.9512 23.7604 3.1944 23.758 4.7184V16.2024C23.758 17.6592 22.6276 18.8568 21.1972 18.9624V17.4432C21.7924 17.3448 22.2484 16.8264 22.2484 16.2024V4.7184C22.2484 4.0248 21.6844 3.4608 20.9908 3.4608H5.88277C5.29957 3.4608 4.80757 3.864 4.66597 4.404H3.13477C3.29317 3.0264 4.46677 1.9512 5.88517 1.9512ZM18.1154 4.7616H3.00743C1.48103 4.7616 0.240234 6.0024 0.240234 7.5288V19.2816C0.240234 20.808 1.48103 22.0488 3.00743 22.0488H18.1154C19.6418 22.0488 20.8826 20.808 20.8826 19.2816V7.5288C20.885 6.0024 19.6418 4.7616 18.1154 4.7616ZM19.373 19.2816C19.373 19.9752 18.809 20.5392 18.1154 20.5392H3.00743C2.31383 20.5392 1.74983 19.9752 1.74983 19.2816V7.5288C1.74983 6.8352 2.31383 6.2712 3.00743 6.2712H18.1154C18.809 6.2712 19.373 6.8352 19.373 7.5288V19.2816ZM6.17317 11.6664C5.34037 11.6664 4.66357 10.9896 4.66357 10.1568C4.66357 9.32162 5.34037 8.64722 6.17317 8.64722C7.00597 8.64722 7.68277 9.32402 7.68277 10.1568C7.68277 10.9896 7.00597 11.6664 6.17317 11.6664ZM13.4089 12.648C13.8577 11.2128 14.5369 9.04559 17.5297 9.04559C17.9473 9.04559 18.2857 9.38399 18.2857 9.79919C18.2857 10.2168 17.9473 10.5552 17.5297 10.5552C15.7369 10.5552 15.3433 11.5224 14.8489 13.0992L14.8487 13.0999C14.5055 14.1942 14.0782 15.5568 12.6241 15.7896C11.3015 15.9997 10.2805 15.6944 9.37685 15.4243L9.3625 15.42C8.7625 15.2376 8.1961 15.0672 7.5721 15.0528H7.5385C6.0745 15.0528 5.0161 17.4096 4.7305 18.324C4.6297 18.6456 4.3321 18.8544 4.0105 18.8544C3.9385 18.8544 3.8617 18.8448 3.7873 18.8208C3.3889 18.6984 3.1657 18.276 3.2905 17.8776C3.3481 17.6976 4.7113 13.4712 7.6129 13.5456C8.436 13.5647 9.12552 13.7723 9.79323 13.9734L9.7993 13.9752C10.6585 14.2344 11.4025 14.4552 12.3865 14.2992C12.8689 14.2224 13.0681 13.7376 13.4089 12.648Z" fill="#252528"/>
</svg>
