<svg width="16" height="16" viewBox="0 0 16 16" fill="none" xmlns="http://www.w3.org/2000/svg">
<path fill-rule="evenodd" clip-rule="evenodd" d="M5 2C4.44772 2 4 2.44772 4 3C4 3.55228 4.44772 4 5 4C5.55228 4 6 3.55228 6 3C6 2.44772 5.55228 2 5 2ZM3 3C3 1.89543 3.89543 1 5 1C6.10457 1 7 1.89543 7 3C7 3.93192 6.36261 4.71497 5.5 4.93699V9.48842C5.56192 9.44635 5.6254 9.40702 5.69008 9.3702C6.28757 9.02996 7.05308 8.87223 7.73034 8.73269C7.7869 8.72103 7.84284 8.70951 7.89802 8.69801C8.66434 8.53836 9.31411 8.38108 9.78119 8.06321C10.1208 7.83209 10.3842 7.50116 10.4701 6.92905C9.62271 6.69681 9 5.92113 9 5C9 3.89543 9.89543 3 11 3C12.1046 3 13 3.89543 13 5C13 5.94043 12.3509 6.72926 11.4763 6.94293C11.3752 7.85154 10.9571 8.47254 10.3438 8.88992C9.68589 9.33767 8.83566 9.52414 8.10198 9.67699C8.06212 9.68529 8.0226 9.6935 7.98342 9.70164C7.25173 9.85361 6.63825 9.98103 6.18492 10.2392C5.96037 10.367 5.79717 10.5166 5.68696 10.7009C5.62638 10.8022 5.57572 10.9243 5.54249 11.0744C6.38346 11.3109 7 12.0834 7 13C7 14.1046 6.10457 15 5 15C3.89543 15 3 14.1046 3 13C3 12.0681 3.63739 11.285 4.5 11.063V4.93699C3.63739 4.71497 3 3.93192 3 3ZM11 4C10.4477 4 10 4.44772 10 5C10 5.55228 10.4477 6 11 6C11.5523 6 12 5.55228 12 5C12 4.44772 11.5523 4 11 4ZM5 12C4.44772 12 4 12.4477 4 13C4 13.5523 4.44772 14 5 14C5.55228 14 6 13.5523 6 13C6 12.4477 5.55228 12 5 12Z" fill="#252528"/>
</svg>
