<svg width="48" height="48" viewBox="0 0 48 48" fill="none" xmlns="http://www.w3.org/2000/svg">
<path fill-rule="evenodd" clip-rule="evenodd" d="M3 24C3 12.4025 12.4025 3 24 3C35.5975 3 45 12.4025 45 24C45 35.5975 35.5975 45 24 45C12.4025 45 3 35.5975 3 24ZM31.449 40.391C32.9299 39.7169 34.3034 38.848 35.5367 37.817C34.9026 37.4008 34.2394 37.0178 33.5503 36.6709C33.2647 37.3163 32.9587 37.9327 32.6342 38.5168C32.2694 39.1736 31.8734 39.8019 31.449 40.391ZM34.6084 33.8474C35.6974 34.3767 36.734 34.9852 37.7089 35.6648C40.0811 32.8797 41.6197 29.3627 41.9384 25.5H36.031C35.9037 28.4921 35.3997 31.3214 34.6084 33.8474ZM33.028 25.5C32.907 28.1044 32.4753 30.5429 31.8207 32.7067C29.8282 32.0357 27.7059 31.6141 25.5 31.482V25.5H33.028ZM36.031 22.5H41.9384C41.6197 18.6373 40.0811 15.1203 37.7089 12.3352C36.734 13.0148 35.6974 13.6233 34.6084 14.1526C35.3997 16.6786 35.9037 19.5079 36.031 22.5ZM31.8207 15.2933C32.4753 17.4571 32.907 19.8956 33.028 22.5H25.5V16.518C27.7059 16.3859 29.8282 15.9643 31.8207 15.2933ZM33.5503 11.3291C34.2394 10.9822 34.9026 10.5992 35.5368 10.183C34.3034 9.15202 32.9299 8.28311 31.449 7.60899C31.8734 8.1981 32.2694 8.82638 32.6342 9.48322C32.9587 10.0673 33.2647 10.6837 33.5503 11.3291ZM16.551 7.60899C15.0701 8.28311 13.6966 9.15202 12.4633 10.183C13.0974 10.5992 13.7606 10.9822 14.4497 11.3291C14.7353 10.6837 15.0414 10.0673 15.3658 9.48322C15.7306 8.82638 16.1266 8.1981 16.551 7.60899ZM13.3916 14.1526C12.3026 13.6233 11.266 13.0148 10.2911 12.3352C7.91885 15.1203 6.38033 18.6373 6.06162 22.5H11.969C12.0963 19.5079 12.6003 16.6786 13.3916 14.1526ZM14.972 22.5C15.093 19.8956 15.5247 17.4571 16.1793 15.2933C18.1718 15.9643 20.2941 16.3859 22.5 16.518V22.5H14.972ZM11.969 25.5H6.06162C6.38033 29.3627 7.91885 32.8797 10.2911 35.6648C11.266 34.9852 12.3026 34.3767 13.3916 33.8474C12.6003 31.3214 12.0963 28.4921 11.969 25.5ZM16.1793 32.7067C15.5247 30.5429 15.093 28.1044 14.972 25.5H22.5V31.482C20.2941 31.6141 18.1718 32.0357 16.1793 32.7067ZM14.4497 36.6709C14.7353 37.3163 15.0414 37.9327 15.3658 38.5168C15.7306 39.1736 16.1266 39.8019 16.551 40.391C15.0701 39.7169 13.6966 38.848 12.4633 37.817C13.0974 37.4008 13.7606 37.0178 14.4497 36.6709ZM17.2218 35.5214C18.8852 34.9691 20.656 34.6138 22.5 34.4881V41.6918C20.9878 41.0846 19.3828 39.5704 17.9884 37.06C17.7192 36.5755 17.463 36.0618 17.2218 35.5214ZM25.5 34.4881C27.344 34.6138 29.1148 34.9691 30.7782 35.5214C30.537 36.0618 30.2808 36.5755 30.0117 37.06C28.6172 39.5704 27.0122 41.0846 25.5 41.6918V34.4881ZM22.5 13.5119C20.656 13.3862 18.8852 13.0309 17.2218 12.4786C17.463 11.9382 17.7192 11.4245 17.9884 10.94C19.3828 8.42961 20.9878 6.9154 22.5 6.30824V13.5119ZM25.5 13.5119C27.344 13.3862 29.1148 13.0309 30.7782 12.4786C30.537 11.9382 30.2808 11.4245 30.0117 10.94C28.6172 8.42961 27.0122 6.9154 25.5 6.30824V13.5119Z" fill="#1565C0"/>
</svg>
