<svg width="24" height="24" viewBox="0 0 24 24" fill="none" xmlns="http://www.w3.org/2000/svg">
<path fill-rule="evenodd" clip-rule="evenodd" d="M6.08565 3.53151C6.34441 3.85495 6.29197 4.32692 5.96852 4.58568L4.20059 6.00003L5.96852 7.41438C6.29197 7.67313 6.34441 8.1451 6.08565 8.46855C5.82689 8.792 5.35493 8.84444 5.03148 8.58568L2.53148 6.58568C2.35357 6.44335 2.25 6.22787 2.25 6.00003C2.25 5.77219 2.35357 5.55671 2.53148 5.41438L5.03148 3.41438C5.35493 3.15562 5.82689 3.20806 6.08565 3.53151ZM8.25 6.00003C8.25 5.58581 8.58579 5.25003 9 5.25003L20.25 5.25003C20.6642 5.25003 21 5.58581 21 6.00003C21 6.41424 20.6642 6.75003 20.25 6.75003L9 6.75003C8.58579 6.75003 8.25 6.41424 8.25 6.00003ZM3 12C3 11.5858 3.33579 11.25 3.75 11.25H20.25C20.6642 11.25 21 11.5858 21 12C21 12.4142 20.6642 12.75 20.25 12.75H3.75C3.33579 12.75 3 12.4142 3 12ZM3 18C3 17.5858 3.33579 17.25 3.75 17.25H20.25C20.6642 17.25 21 17.5858 21 18C21 18.4142 20.6642 18.75 20.25 18.75H3.75C3.33579 18.75 3 18.4142 3 18Z" fill="#252528"/>
</svg>
