<svg width="24" height="24" viewBox="0 0 24 24" fill="none" xmlns="http://www.w3.org/2000/svg">
<path fill-rule="evenodd" clip-rule="evenodd" d="M2.41437 3.53151C2.67313 3.20806 3.1451 3.15562 3.46855 3.41437L5.96855 5.41435C6.14646 5.55668 6.25003 5.77216 6.25003 6C6.25003 6.22784 6.14646 6.44332 5.96855 6.58565L3.46855 8.58568C3.14511 8.84444 2.67314 8.792 2.41438 8.46855C2.15562 8.14511 2.20806 7.67314 2.5315 7.41438L4.29944 6.00001L2.53151 4.58568C2.20806 4.32693 2.15562 3.85496 2.41437 3.53151ZM8.25003 6C8.25003 5.58579 8.58581 5.25 9.00003 5.25L20.25 5.25C20.6642 5.25 21 5.58579 21 6C21 6.41422 20.6642 6.75 20.25 6.75L9.00003 6.75C8.58581 6.75 8.25003 6.41422 8.25003 6ZM3.00003 12C3.00003 11.5858 3.33581 11.25 3.75003 11.25H20.25C20.6642 11.25 21 11.5858 21 12C21 12.4142 20.6642 12.75 20.25 12.75H3.75003C3.33581 12.75 3.00003 12.4142 3.00003 12ZM3.00003 18C3.00003 17.5858 3.33581 17.25 3.75003 17.25H20.25C20.6642 17.25 21 17.5858 21 18C21 18.4142 20.6642 18.75 20.25 18.75H3.75003C3.33581 18.75 3.00003 18.4142 3.00003 18Z" fill="#252528"/>
</svg>
