<svg width="16" height="16" viewBox="0 0 16 16" fill="none" xmlns="http://www.w3.org/2000/svg">
<path fill-rule="evenodd" clip-rule="evenodd" d="M7.43841 0.43934C7.71971 0.158035 8.10124 0 8.49907 0C8.89689 0 9.27842 0.158035 9.55973 0.43934C9.74598 0.625598 9.8782 0.855797 9.94628 1.10557C10.1206 1.03648 10.3079 1 10.4991 1C10.8969 1 11.2784 1.15804 11.5597 1.43934C11.841 1.72064 11.9991 2.10217 11.9991 2.5V3.08579C12.1582 3.02953 12.3271 3 12.4991 3C12.8969 3 13.2784 3.15804 13.5597 3.43934C13.841 3.72064 13.9991 4.10217 13.9991 4.5V10C13.9991 11.9229 13.474 13.4317 12.5232 14.4645C11.5687 15.5011 10.2383 16 8.74907 16C7.29772 16 6.22257 15.6725 5.41612 15.0999C4.61179 14.5288 4.12618 13.7501 3.78795 12.9433C3.78496 12.9362 3.78214 12.929 3.77949 12.9218L2.13404 8.42308C2.13396 8.42285 2.13387 8.42262 2.13379 8.42239C2.00579 8.07519 1.95494 7.69896 2.04335 7.34068C2.13512 6.96882 2.368 6.65676 2.72702 6.45279C2.72705 6.45278 2.72708 6.45276 2.72711 6.45274C3.42447 6.0565 4.39004 6.23839 4.80121 7.01963C4.80828 7.03306 4.81474 7.04681 4.82056 7.06083L4.99907 7.49093V3C4.99907 2.60217 5.1571 2.22064 5.43841 1.93934C5.71971 1.65804 6.10124 1.5 6.49907 1.5C6.67104 1.5 6.83996 1.52953 6.99907 1.58579V1.5C6.99907 1.10217 7.1571 0.720644 7.43841 0.43934ZM7.99907 7.53125C7.99907 7.80739 7.77521 8.03125 7.49907 8.03125C7.22292 8.03125 6.99907 7.80739 6.99907 7.53125V3C6.99907 2.86739 6.94639 2.74021 6.85262 2.64645C6.75885 2.55268 6.63167 2.5 6.49907 2.5C6.36646 2.5 6.23928 2.55268 6.14551 2.64645C6.05174 2.74021 5.99907 2.86739 5.99907 3V10C5.99907 10.2385 5.83066 10.4438 5.59678 10.4904C5.36291 10.537 5.12867 10.4119 5.03726 10.1917L3.90744 7.46945C3.78715 7.26423 3.48696 7.17112 3.22111 7.32221L3.22102 7.32226C3.0954 7.39361 3.03879 7.48074 3.01423 7.58026C2.98637 7.69314 2.99227 7.86025 3.07222 8.07692L3.0727 8.07825L4.71459 12.5672C5.00988 13.2683 5.39838 13.8608 5.99506 14.2845C6.59259 14.7088 7.45041 15 8.74907 15C10.0099 15 11.0544 14.5833 11.7875 13.7871C12.5241 12.987 12.9991 11.7459 12.9991 10V4.5C12.9991 4.36739 12.9464 4.24021 12.8526 4.14645C12.7589 4.05268 12.6317 4 12.4991 4C12.3665 4 12.2393 4.05268 12.1455 4.14645C12.0517 4.24021 11.9991 4.36739 11.9991 4.5V8C11.9991 8.27614 11.7752 8.5 11.4991 8.5C11.2229 8.5 10.9991 8.27614 10.9991 8V2.5C10.9991 2.36739 10.9464 2.24022 10.8526 2.14645C10.7589 2.05268 10.6317 2 10.4991 2C10.3665 2 10.2393 2.05268 10.1455 2.14645C10.0517 2.24022 9.99907 2.36739 9.99907 2.5V7.5C9.99907 7.77614 9.77521 8 9.49907 8C9.22292 8 8.99907 7.77614 8.99907 7.5V1.5C8.99907 1.36739 8.94639 1.24022 8.85262 1.14645C8.75885 1.05268 8.63167 1 8.49907 1C8.36646 1 8.23928 1.05268 8.14551 1.14645C8.05174 1.24022 7.99907 1.36739 7.99907 1.5V7.53125Z" fill="#252528"/>
</svg>
