<svg width="24" height="24" viewBox="0 0 24 24" fill="none" xmlns="http://www.w3.org/2000/svg">
<path d="M10.125 1.5C10.7464 1.5 11.25 2.00368 11.25 2.625V12C11.25 12.4142 11.5858 12.75 12 12.75C12.4143 12.75 12.75 12.4142 12.75 12V8.20012C12.7922 8.19811 12.8355 8.19623 12.8796 8.19452C13.3542 8.17607 13.8345 8.18175 14.103 8.23544C14.3044 8.27573 14.5437 8.37891 14.7757 8.50791C14.8902 8.57152 15 8.72879 15 8.97882V12C15 12.4142 15.3358 12.75 15.75 12.75C16.1643 12.75 16.5 12.4142 16.5 12V9.652C16.5513 9.64689 16.6043 9.64213 16.6586 9.63791C17.1326 9.60106 17.5345 9.62155 17.7215 9.69636C17.8984 9.76711 18.1702 10.0078 18.4497 10.3415C18.5716 10.4869 18.6754 10.6261 18.75 10.7311V12.75C18.75 13.1642 19.0858 13.5 19.5 13.5C19.9143 13.5 20.25 13.1642 20.25 12.75V11.25H20.7638C21.6512 11.25 22.3447 12.0162 22.2564 12.8993L21.8491 16.9722C21.7967 17.4959 21.6347 18.0027 21.3736 18.4596L19.2807 22.1221C19.1472 22.3558 18.8987 22.5 18.6296 22.5H9.05281C8.80205 22.5 8.56788 22.3747 8.42878 22.166L6.27897 18.9413C6.07943 18.642 5.95457 18.2992 5.91484 17.9417L5.39732 13.284C5.35436 12.8973 5.61417 12.542 5.99565 12.4657L7.50004 12.1649V13.5C7.50004 13.9142 7.83583 14.25 8.25004 14.25C8.66425 14.25 9.00004 13.9142 9.00004 13.5V2.625C9.00004 2.00368 9.50372 1.5 10.125 1.5ZM12.75 6.69858V2.625C12.75 1.17525 11.5748 0 10.125 0C8.67529 0 7.50004 1.17525 7.50004 2.625V10.6351L5.70147 10.9949C4.55704 11.2237 3.77761 12.2897 3.90649 13.4496L4.42402 18.1074C4.49023 18.7032 4.69833 19.2745 5.03089 19.7734L7.1807 22.9981C7.598 23.624 8.30052 24 9.05281 24H18.6296C19.437 24 20.1825 23.5674 20.5831 22.8663L22.676 19.2038C23.0415 18.5641 23.2683 17.8546 23.3416 17.1215L23.7489 13.0485C23.9255 11.2825 22.5387 9.75 20.7638 9.75H19.8915C19.8108 9.64053 19.7119 9.51232 19.5996 9.37821C19.3121 9.03505 18.8339 8.52578 18.2786 8.30364C17.7334 8.08556 17.0103 8.10604 16.5423 8.14242C16.4739 8.14774 16.4074 8.15375 16.3435 8.16018C16.1883 7.77378 15.9142 7.42462 15.5046 7.19689C15.2123 7.0344 14.8172 6.84858 14.3971 6.76456C13.9333 6.67181 13.2886 6.67748 12.8213 6.69565C12.7973 6.69658 12.7735 6.69756 12.75 6.69858ZM15.8916 9.73651C15.8915 9.73653 15.8915 9.73653 15.8916 9.73651V9.73651Z" fill="#252528"/>
</svg>
