<svg width="24" height="24" viewBox="0 0 24 24" fill="none" xmlns="http://www.w3.org/2000/svg">
<path d="M12.7502 2.625V6.69858L12.8215 6.69565C13.2888 6.67748 13.9335 6.67181 14.3973 6.76456C14.8174 6.84858 15.2125 7.0344 15.5048 7.19689C15.9144 7.42462 16.1885 7.77378 16.3436 8.16018C16.4076 8.15375 16.4741 8.14774 16.5425 8.14242C17.0105 8.10604 17.7336 8.08556 18.2788 8.30364C18.8341 8.52578 19.3123 9.03505 19.5998 9.37821C19.7121 9.51232 19.811 9.64053 19.8917 9.75H20.764C22.5389 9.75 23.9257 11.2825 23.7491 13.0485L23.3418 17.1215C23.2685 17.8546 23.0417 18.5641 22.6762 19.2038L20.5833 22.8663C20.1827 23.5674 19.4372 24 18.6298 24H9.17729C8.32505 24 7.54596 23.5185 7.16483 22.7562L5.3423 19.1112L1.60521 12.8827C0.980439 11.8414 1.28365 10.493 2.29404 9.81941C3.19632 9.21789 4.39775 9.33685 5.16454 10.1036L7.50024 12.4393V2.625C7.50024 1.17525 8.67549 0 10.1252 0C11.575 0 12.7502 1.17525 12.7502 2.625Z" fill="#252528"/>
</svg>
