<svg width="48" height="48" viewBox="0 0 48 48" fill="none" xmlns="http://www.w3.org/2000/svg">
<path d="M15.3316 27.3095C14.9503 26.5741 14.045 26.287 13.3095 26.6684C12.5741 27.0497 12.287 27.955 12.6684 28.6905C13.4635 30.2239 14.9438 31.9042 16.8566 33.2047C18.783 34.5145 21.2382 35.5 24 35.5C26.7618 35.5 29.217 34.5145 31.1434 33.2047C33.0562 31.9042 34.5365 30.2239 35.3316 28.6905C35.713 27.955 35.4259 27.0497 34.6905 26.6684C33.955 26.287 33.0497 26.5741 32.6684 27.3095C32.1302 28.3475 31.0105 29.6673 29.4566 30.7239C27.9163 31.7712 26.0382 32.5 24 32.5C21.9618 32.5 20.0837 31.7712 18.5434 30.7239C16.9895 29.6673 15.8698 28.3475 15.3316 27.3095Z" fill="#4CAF50"/>
<path fill-rule="evenodd" clip-rule="evenodd" d="M24 2.5C12.1259 2.5 2.5 12.1259 2.5 24C2.5 35.8741 12.1259 45.5 24 45.5C35.8741 45.5 45.5 35.8741 45.5 24C45.5 12.1259 35.8741 2.5 24 2.5ZM5.5 24C5.5 13.7827 13.7827 5.5 24 5.5C34.2173 5.5 42.5 13.7827 42.5 24C42.5 34.2173 34.2173 42.5 24 42.5C13.7827 42.5 5.5 34.2173 5.5 24Z" fill="#4CAF50"/>
<path d="M20 16C20 17.1046 19.1046 18 18 18C16.8954 18 16 17.1046 16 16C16 14.8954 16.8954 14 18 14C19.1046 14 20 14.8954 20 16Z" fill="#4CAF50"/>
<path d="M32 16C32 17.1046 31.1046 18 30 18C28.8954 18 28 17.1046 28 16C28 14.8954 28.8954 14 30 14C31.1046 14 32 14.8954 32 16Z" fill="#4CAF50"/>
</svg>
