<svg width="24" height="24" viewBox="0 0 24 24" fill="none" xmlns="http://www.w3.org/2000/svg">
<path fill-rule="evenodd" clip-rule="evenodd" d="M12 2.75C6.89137 2.75 2.75 6.89137 2.75 12C2.75 17.1086 6.89137 21.25 12 21.25C17.1086 21.25 21.25 17.1086 21.25 12C21.25 6.89137 17.1086 2.75 12 2.75ZM1.25 12C1.25 6.06294 6.06294 1.25 12 1.25C17.9371 1.25 22.75 6.06294 22.75 12C22.75 17.9371 17.9371 22.75 12 22.75C6.06294 22.75 1.25 17.9371 1.25 12ZM11.25 17C11.25 16.5858 11.5858 16.25 12 16.25H12.01C12.4242 16.25 12.76 16.5858 12.76 17C12.76 17.4142 12.4242 17.75 12.01 17.75H12C11.5858 17.75 11.25 17.4142 11.25 17ZM10.7798 8.05575C11.2379 7.78652 11.7765 7.68811 12.3002 7.77794C12.8239 7.86777 13.299 8.14005 13.6412 8.54655C13.9833 8.95305 14.1706 9.46754 14.1698 9.9989L14.1698 10C14.1698 10.6019 13.7085 11.1562 13.0038 11.626C12.6743 11.8457 12.3394 12.0136 12.084 12.1272C11.9573 12.1835 11.8528 12.2252 11.7818 12.2523C11.7463 12.2658 11.7193 12.2756 11.7023 12.2816L11.6844 12.2879L11.6823 12.2886L11.6821 12.2887L11.6815 12.2889C11.2893 12.4203 11.0775 12.8446 11.2083 13.2372C11.3393 13.6301 11.7641 13.8425 12.157 13.7115L11.9198 13C12.157 13.7115 12.1572 13.7115 12.1575 13.7114L12.158 13.7112L12.1592 13.7108L12.1626 13.7097L12.1725 13.7063L12.2048 13.695C12.2317 13.6854 12.2692 13.6717 12.3157 13.654C12.4087 13.6186 12.5386 13.5666 12.6932 13.4979C13.0003 13.3614 13.4154 13.1544 13.8359 12.8741C14.6311 12.3439 15.6696 11.3984 15.6698 10.0005L15.6698 10.0011L14.9198 10H15.6698V10.0005C15.671 9.11512 15.3589 8.25788 14.7887 7.58055C14.2184 6.90304 13.4267 6.44924 12.5538 6.29953C11.681 6.14981 10.7833 6.31384 10.0198 6.76255C9.25628 7.21127 8.67622 7.91572 8.38234 8.75114C8.24489 9.14188 8.45022 9.57007 8.84096 9.70752C9.2317 9.84498 9.65989 9.63964 9.79734 9.2489C9.97367 8.74765 10.3217 8.32498 10.7798 8.05575Z" fill="#252528"/>
</svg>
