<svg width="24" height="24" viewBox="0 0 24 24" fill="none" xmlns="http://www.w3.org/2000/svg">
<path d="M22.2598 9.44639C21.1798 8.17919 19.879 6.60959 19.5358 6.12239V2.47919C19.5358 1.28159 18.5614 0.30479 17.3614 0.30479C16.1974 0.30479 15.2422 1.22639 15.1894 2.37599L13.7998 0.98639C13.3198 0.50639 12.6766 0.23999 11.9926 0.23999C11.3086 0.23999 10.6678 0.50639 10.1854 0.98879L1.74943 9.42479C1.27663 9.89759 1.00543 10.6128 1.00783 11.388C1.01023 12.1608 1.28383 12.8784 1.75903 13.356C1.89583 13.4928 2.07823 13.5696 2.27023 13.5696H3.38143C3.48703 13.5696 3.77023 13.5696 3.83263 13.6296C3.87103 13.668 3.86863 13.8 3.86863 13.968V21.2976C3.86863 22.656 4.97503 23.7624 6.33343 23.7624H9.24223C9.64063 23.7624 9.96463 23.4384 9.96463 23.04V17.9592C9.96463 17.3976 10.4206 16.9392 10.9822 16.9392H13.015C13.5766 16.9392 14.035 17.3976 14.035 17.9592V23.0376C14.035 23.436 14.359 23.76 14.7574 23.76H17.6542C19.0126 23.76 20.119 22.6536 20.119 21.2952V14.0376C20.119 13.8504 20.1238 13.7016 20.1742 13.644C20.2222 13.5912 20.359 13.5648 20.6038 13.5648H21.7438C21.9382 13.5648 22.1182 13.4904 22.255 13.3536C22.7254 12.8832 22.9942 12.1728 22.9942 11.4048C22.9918 10.6392 22.7254 9.92639 22.2598 9.44639ZM18.6718 12.8448V21.2976C18.6718 21.8592 18.2158 22.3176 17.6518 22.3176H15.6838C15.607 22.3176 15.4798 22.2888 15.4798 22.0896V17.9616C15.4798 16.6032 14.3734 15.4968 13.015 15.4968H10.9822C9.62383 15.4944 8.51983 16.6008 8.51983 17.9592V22.0776C8.51983 22.236 8.48143 22.3152 8.26783 22.3152H6.33583C5.77423 22.3152 5.31583 21.8592 5.31583 21.2952V12.8448C5.31583 12.4464 4.99183 12.1224 4.59343 12.1224H2.74303C2.56303 12.036 2.45263 11.88 2.40943 11.6568C2.32783 11.232 2.53183 10.6872 2.77183 10.4472L11.2078 2.01119C11.4166 1.79999 11.6974 1.68479 11.9926 1.68479C12.2902 1.68479 12.5686 1.79999 12.7798 2.01119L15.4006 4.63199C15.5374 4.76879 15.7174 4.84319 15.9118 4.84319C16.0078 4.84319 16.099 4.82399 16.1878 4.78799C16.459 4.67519 16.6342 4.41359 16.6342 4.12079V2.48159C16.6342 2.08079 16.9606 1.75199 17.3638 1.75199C17.7646 1.75199 18.0934 2.07839 18.0934 2.48159V6.31199C18.0934 6.59519 18.2158 6.78959 18.7006 7.41119C18.9454 7.72559 19.2886 8.14799 19.7158 8.66159C20.407 9.49679 21.1006 10.3128 21.1798 10.404C21.1918 10.4184 21.2062 10.4328 21.2182 10.4448C21.487 10.7136 21.6478 11.304 21.5662 11.7096C21.5254 11.9136 21.4294 12.0504 21.2854 12.12H19.3966C18.9958 12.12 18.6718 12.4464 18.6718 12.8448Z" fill="#252528"/>
</svg>
