<svg width="24" height="24" viewBox="0 0 24 24" fill="none" xmlns="http://www.w3.org/2000/svg">
<path d="M3 2.25C3 1.83579 3.33579 1.5 3.75 1.5H20.25C20.6642 1.5 21 1.83579 21 2.25C21 2.66421 20.6642 3 20.25 3H18.75V4.5C18.75 7.18516 17.1821 9.50263 14.9152 10.5896C14.4803 10.7981 14.25 11.1553 14.25 11.4738V12.5262C14.25 12.8448 14.4803 13.2019 14.9152 13.4105C17.1821 14.4974 18.75 16.8149 18.75 19.5V21L20.25 21C20.6642 21 21 21.3358 21 21.75C21 22.1642 20.6642 22.5 20.25 22.5L3.75 22.5C3.33579 22.5 3 22.1642 3 21.75C3 21.3358 3.33579 21 3.75 21H5.25V19.5C5.25 16.8149 6.81792 14.4974 9.08483 13.4105C9.51968 13.2019 9.75 12.8448 9.75 12.5262V11.4738C9.75 11.1553 9.51968 10.7981 9.08483 10.5896C6.81792 9.50263 5.25 7.18516 5.25 4.5V3H3.75C3.33579 3 3 2.66421 3 2.25ZM6.75 3V4.5C6.75 6.58646 7.96708 8.39012 9.73336 9.23703C10.5328 9.62035 11.25 10.4234 11.25 11.4738V12.5262C11.25 12.5262 11.52 12.75 12 12.75C12.48 12.75 12.75 12.5262 12.75 12.5262V11.4738C12.75 10.4234 13.4672 9.62035 14.2666 9.23703C16.0329 8.39012 17.25 6.58646 17.25 4.5V3H6.75Z" fill="#252528"/>
</svg>
