<svg width="24" height="24" viewBox="0 0 24 24" fill="none" xmlns="http://www.w3.org/2000/svg">
  <path
    d="M3.75 22.5C3.33579 22.5 3 22.1642 3 21.75C3 21.3358 3.33579 21 3.75 21H5.25V19.5C5.25 16.8149 6.81792 14.4974 9.08483 13.4105C9.51968 13.2019 9.75 12.8448 9.75 12.5262V11.4738C9.75 11.1553 9.51968 10.7981 9.08483 10.5896C6.81792 9.50263 5.25 7.18516 5.25 4.5V3H3.75C3.33579 3 3 2.66421 3 2.25C3 1.83579 3.33579 1.5 3.75 1.5L20.25 1.50003C20.6642 1.50004 21 1.83583 21 2.25004C21 2.66426 20.6642 3.00004 20.25 3.00003L18.75 3.00001V4.5C18.75 7.18516 17.1821 9.50263 14.9152 10.5896C14.4803 10.7981 14.25 11.1553 14.25 11.4738V12.5262C14.25 12.8448 14.4803 13.2019 14.9152 13.4105C17.1821 14.4974 18.75 16.8149 18.75 19.5V21H20.25C20.6642 21 21 21.3358 21 21.75C21 22.1642 20.6642 22.5 20.25 22.5H3.75ZM6.75 3.00003V4.50003C6.75 5.30504 6.93118 6.06796 7.25517 6.75007H16.7448C17.0688 6.06796 17.25 5.30504 17.25 4.50003V3.00003H6.75ZM11.25 12.5263C11.25 13.5766 10.5328 14.3797 9.73336 14.763C7.96708 15.6099 6.75 17.4136 6.75 19.5001C6.75 19.5001 8.04862 17.5521 11.25 17.2812V12.5263ZM12.75 12.5263V17.2812C15.9514 17.5521 17.25 19.5001 17.25 19.5001C17.25 17.4136 16.0329 15.6099 14.2666 14.763C13.4672 14.3797 12.75 13.5766 12.75 12.5263Z"
    fill="#252528"/>
</svg>
