<svg width="24" height="24" viewBox="0 0 24 24" fill="none" xmlns="http://www.w3.org/2000/svg">
<path d="M11.25 5.625C11.25 6.24632 10.7463 6.75 10.125 6.75C9.50368 6.75 9 6.24632 9 5.625C9 5.00368 9.50368 4.5 10.125 4.5C10.7463 4.5 11.25 5.00368 11.25 5.625Z" fill="#252528"/>
<path d="M9.95801 7.93799L11.9522 9.26746L14.7348 6.48485C14.849 6.37071 15.0233 6.34241 15.1677 6.4146L16.5 7.125V10.5C16.5 10.9142 16.1642 11.25 15.75 11.25H8.25C7.83579 11.25 7.5 10.9142 7.5 10.5V9.75001C7.5 9.75001 9.80928 7.83884 9.95801 7.93799Z" fill="#252528"/>
<path d="M7.5 14.25C7.5 13.8358 7.83579 13.5 8.25 13.5H15.75C16.1642 13.5 16.5 13.8358 16.5 14.25C16.5 14.6642 16.1642 15 15.75 15H8.25C7.83579 15 7.5 14.6642 7.5 14.25Z" fill="#252528"/>
<path d="M7.5 17.25C7.5 16.8358 7.83579 16.5 8.25 16.5H11.25C11.6642 16.5 12 16.8358 12 17.25C12 17.6642 11.6642 18 11.25 18H8.25C7.83579 18 7.5 17.6642 7.5 17.25Z" fill="#252528"/>
<path d="M4.5 0H19.5C21.1569 0 22.5 1.34315 22.5 3V21C22.5 22.6569 21.1569 24 19.5 24H4.5C2.84315 24 1.5 22.6569 1.5 21V19.5H3V21C3 21.8284 3.67157 22.5 4.5 22.5H19.5C20.3284 22.5 21 21.8284 21 21V3C21 2.17157 20.3284 1.5 19.5 1.5H4.5C3.67157 1.5 3 2.17157 3 3V4.5H1.5V3C1.5 1.34314 2.84315 0 4.5 0Z" fill="#252528"/>
<path d="M1.5 7.5V6.75C1.5 6.33579 1.83579 6 2.25 6C2.66421 6 3 6.33579 3 6.75V7.5H3.75C4.16421 7.5 4.5 7.83579 4.5 8.25C4.5 8.66421 4.16421 9 3.75 9H0.75C0.335786 9 0 8.66421 0 8.25C0 7.83579 0.335786 7.5 0.75 7.5H1.5Z" fill="#252528"/>
<path d="M1.5 12V11.25C1.5 10.8358 1.83579 10.5 2.25 10.5C2.66421 10.5 3 10.8358 3 11.25V12H3.75C4.16421 12 4.5 12.3358 4.5 12.75C4.5 13.1642 4.16421 13.5 3.75 13.5H0.75C0.335786 13.5 0 13.1642 0 12.75C0 12.3358 0.335786 12 0.75 12H1.5Z" fill="#252528"/>
<path d="M1.5 16.5V15.75C1.5 15.3358 1.83579 15 2.25 15C2.66421 15 3 15.3358 3 15.75V16.5H3.75C4.16421 16.5 4.5 16.8358 4.5 17.25C4.5 17.6642 4.16421 18 3.75 18H0.75C0.335786 18 0 17.6642 0 17.25C0 16.8358 0.335786 16.5 0.75 16.5H1.5Z" fill="#252528"/>
</svg>
