<svg width="24" height="24" viewBox="0 0 24 24" fill="none" xmlns="http://www.w3.org/2000/svg">
<path d="M12.75 21C12.75 21.414 12.414 21.75 12 21.75H8C5.381 21.75 3.25 19.619 3.25 17V7C3.25 4.381 5.381 2.25 8 2.25H12C12.414 2.25 12.75 2.586 12.75 3C12.75 3.414 12.414 3.75 12 3.75H8C6.208 3.75 4.75 5.208 4.75 7V17C4.75 18.792 6.208 20.25 8 20.25H12C12.414 20.25 12.75 20.586 12.75 21ZM20.53 11.47L16.53 7.46997C16.237 7.17697 15.762 7.17697 15.469 7.46997C15.176 7.76297 15.176 8.23801 15.469 8.53101L18.189 11.251H10C9.586 11.251 9.25 11.587 9.25 12.001C9.25 12.415 9.586 12.751 10 12.751H18.189L15.469 15.4709C15.176 15.7639 15.176 16.239 15.469 16.532C15.615 16.678 15.807 16.752 15.999 16.752C16.191 16.752 16.383 16.679 16.529 16.532L20.529 12.532C20.823 12.237 20.823 11.763 20.53 11.47Z" fill="#252528"/>
</svg>
