<svg width="62" height="56" viewBox="0 0 62 56" fill="none" xmlns="http://www.w3.org/2000/svg">
  <path fill-rule="evenodd" clip-rule="evenodd"
        d="M8.97895 0.224886C7.19959 0.926101 6.28215 3.05634 6.92978 4.98291L11.3248 18.0572C5.08993 19.8701 0.5 26.0323 0.5 33.3553C0.5 42.1029 7.04944 49.1942 15.1286 49.1942H33.1857L43.4304 56L41.1037 49.1942H41.8714C49.9506 49.1942 56.5 42.1029 56.5 33.3553C56.5 27.015 53.0593 21.5448 48.0892 19.0142C48.0984 18.9884 48.1075 18.9625 48.1162 18.9364L50.975 10.4321C51.6227 8.50552 50.7052 6.37528 48.9259 5.67406C47.1465 4.97285 45.1791 5.9662 44.5314 7.89277L41.6726 16.3971C41.5484 16.7665 41.4818 17.1435 41.4678 17.5164H18.2688C18.2548 17.1435 18.1882 16.7665 18.064 16.3971L13.3734 2.44359C12.7258 0.517019 10.7583 -0.476329 8.97895 0.224886ZM15.1286 23.456H41.8714C46.9209 23.456 51.0143 27.8881 51.0143 33.3553C51.0143 38.8226 46.9209 43.2546 41.8714 43.2546H15.1286C10.0791 43.2546 5.98571 38.8226 5.98571 33.3553C5.98571 27.8881 10.0791 23.456 15.1286 23.456ZM16.5 36.5726C18.0148 36.5726 19.2429 35.243 19.2429 33.6028C19.2429 31.9626 18.0148 30.633 16.5 30.633C14.9852 30.633 13.7571 31.9626 13.7571 33.6028C13.7571 35.243 14.9852 36.5726 16.5 36.5726ZM28.6143 36.5726C30.1291 36.5726 31.3571 35.243 31.3571 33.6028C31.3571 31.9626 30.1291 30.633 28.6143 30.633C27.0994 30.633 25.8714 31.9626 25.8714 33.6028C25.8714 35.243 27.0994 36.5726 28.6143 36.5726ZM43.4714 33.6028C43.4714 35.243 42.2434 36.5726 40.7286 36.5726C39.2137 36.5726 37.9857 35.243 37.9857 33.6028C37.9857 31.9626 39.2137 30.633 40.7286 30.633C42.2434 30.633 43.4714 31.9626 43.4714 33.6028Z"
        fill="#E4E5E9" />
  <path fill-rule="evenodd" clip-rule="evenodd"
        d="M13.9789 0.224886C12.1996 0.926101 11.2822 3.05634 11.9298 4.98291L16.3248 18.0572C10.0899 19.8701 5.5 26.0323 5.5 33.3553C5.5 42.1029 12.0494 49.1942 20.1286 49.1942H38.1857L48.4304 56L46.1037 49.1942H46.8714C54.9506 49.1942 61.5 42.1029 61.5 33.3553C61.5 27.015 58.0593 21.5448 53.0892 19.0142C53.0984 18.9884 53.1075 18.9625 53.1162 18.9364L55.975 10.4321C56.6227 8.50552 55.7052 6.37528 53.9259 5.67406C52.1465 4.97285 50.1791 5.9662 49.5314 7.89277L46.6726 16.3971C46.5484 16.7665 46.4818 17.1435 46.4678 17.5164H23.2688C23.2548 17.1435 23.1882 16.7665 23.064 16.3971L18.3734 2.44359C17.7258 0.517019 15.7583 -0.476329 13.9789 0.224886ZM20.1286 23.456H46.8714C51.9209 23.456 56.0143 27.8881 56.0143 33.3553C56.0143 38.8226 51.9209 43.2546 46.8714 43.2546H20.1286C15.0791 43.2546 10.9857 38.8226 10.9857 33.3553C10.9857 27.8881 15.0791 23.456 20.1286 23.456ZM21.5 36.5726C23.0148 36.5726 24.2429 35.243 24.2429 33.6028C24.2429 31.9626 23.0148 30.633 21.5 30.633C19.9852 30.633 18.7571 31.9626 18.7571 33.6028C18.7571 35.243 19.9852 36.5726 21.5 36.5726ZM33.6143 36.5726C35.1291 36.5726 36.3571 35.243 36.3571 33.6028C36.3571 31.9626 35.1291 30.633 33.6143 30.633C32.0994 30.633 30.8714 31.9626 30.8714 33.6028C30.8714 35.243 32.0994 36.5726 33.6143 36.5726ZM48.4714 33.6028C48.4714 35.243 47.2434 36.5726 45.7286 36.5726C44.2137 36.5726 42.9857 35.243 42.9857 33.6028C42.9857 31.9626 44.2137 30.633 45.7286 30.633C47.2434 30.633 48.4714 31.9626 48.4714 33.6028Z"
        fill="#1565C0" />
</svg>
