<svg width="24" height="24" viewBox="0 0 24 24" fill="none" xmlns="http://www.w3.org/2000/svg">
<path fill-rule="evenodd" clip-rule="evenodd" d="M10.9548 2.25H13.0452C14.8818 2.24999 16.3214 2.24999 17.4635 2.37373C18.6291 2.50001 19.5734 2.76232 20.3798 3.34815C20.8679 3.70281 21.2972 4.13209 21.6518 4.62024C21.8065 4.83304 21.9399 5.05734 22.0546 5.29546C22.4248 6.06379 22.5899 6.95506 22.6702 8.01904C22.75 9.07488 22.75 10.3708 22.75 11.971V12.0453C22.75 13.8818 22.75 15.3214 22.6263 16.4635C22.5 17.6291 22.2377 18.5734 21.6518 19.3798C21.2972 19.8679 20.8679 20.2972 20.3798 20.6518C19.5734 21.2377 18.6291 21.5 17.4635 21.6263C16.3214 21.75 14.8818 21.75 13.0453 21.75H11C10.5858 21.75 10.25 21.4142 10.25 21C10.25 20.5858 10.5858 20.25 11 20.25H13C14.8916 20.25 16.25 20.249 17.302 20.135C18.3399 20.0225 18.9901 19.8074 19.4981 19.4383C19.8589 19.1762 20.1762 18.8589 20.4383 18.4981C20.8074 17.9901 21.0225 17.3399 21.135 16.302C21.249 15.25 21.25 13.8916 21.25 12C21.25 10.3648 21.2495 9.12493 21.1745 8.13204C21.1425 7.70891 21.0977 7.34361 21.0373 7.02338L19.5608 8.49987C17.9285 10.1321 16.6494 11.4113 15.5171 12.2752C14.3582 13.1594 13.2655 13.6789 12 13.6789C10.7345 13.6789 9.64181 13.1594 8.48288 12.2752C7.35062 11.4113 6.07145 10.1321 4.43919 8.49985L2.96271 7.02338C2.9023 7.34361 2.85746 7.70891 2.8255 8.13204C2.75049 9.12493 2.75 10.3648 2.75 12C2.75 12.4142 2.41421 12.75 2 12.75C1.58579 12.75 1.25 12.4142 1.25 12V11.971C1.25 10.3708 1.24999 9.07487 1.32976 8.01904C1.41014 6.95506 1.57515 6.06379 1.94538 5.29546C2.06012 5.05734 2.19354 4.83304 2.34815 4.62023C2.70281 4.13209 3.13209 3.70281 3.62023 3.34815C4.42656 2.76232 5.37094 2.50001 6.53648 2.37373C7.67861 2.24999 9.11821 2.24999 10.9548 2.25ZM5.45926 7.3986C7.14092 9.08026 8.34994 10.287 9.39275 11.0827C10.4183 11.8651 11.1944 12.1789 12 12.1789C12.8056 12.1789 13.5817 11.8651 14.6072 11.0827C15.6501 10.287 16.8591 9.08026 18.5407 7.3986L20.4379 5.50139C20.1759 5.14081 19.8587 4.82369 19.4981 4.56168C18.9901 4.19259 18.3399 3.97745 17.302 3.865C16.25 3.75103 14.8916 3.75 13 3.75H11C9.10843 3.75 7.74999 3.75103 6.69804 3.865C5.66013 3.97745 5.00992 4.19259 4.50191 4.56168C4.14128 4.82369 3.82412 5.14081 3.56205 5.50139L5.45926 7.3986ZM0.25 16C0.25 15.5858 0.585786 15.25 1 15.25H4C4.41421 15.25 4.75 15.5858 4.75 16C4.75 16.4142 4.41421 16.75 4 16.75H1C0.585786 16.75 0.25 16.4142 0.25 16ZM0.25 19C0.25 18.5858 0.585786 18.25 1 18.25H7C7.41421 18.25 7.75 18.5858 7.75 19C7.75 19.4142 7.41421 19.75 7 19.75H1C0.585786 19.75 0.25 19.4142 0.25 19Z" fill="#252528"/>
</svg>
