<svg width="24" height="24" viewBox="0 0 24 24" fill="none" xmlns="http://www.w3.org/2000/svg">
<path fill-rule="evenodd" clip-rule="evenodd" d="M11 3C8.18385 3 5.88915 4.34664 4.59289 5.64289C3.29016 6.94562 2 9.19161 2 12C2 14.8162 3.34664 17.1109 4.64289 18.4071C5.94562 19.7098 8.19162 21 11 21C11.5523 21 12 20.5523 12 20C12 19.4477 11.5523 19 11 19C8.80838 19 7.05057 17.9864 6.05711 16.9929C5.05716 15.9929 4 14.1838 4 12C4 9.80838 5.01364 8.05057 6.00711 7.05711C7.00705 6.05716 8.81615 5 11 5C13.1916 5 14.9494 6.01364 15.9429 7.00711C16.7596 7.82377 17.6144 9.18017 17.9003 10.8396L17.1247 10.2191C16.6934 9.87412 16.0641 9.94404 15.7191 10.3753C15.3741 10.8066 15.444 11.4359 15.8753 11.7809L18.3753 13.7809C18.7732 14.0992 19.3468 14.0674 19.7071 13.7071L21.7071 11.7071C22.0976 11.3166 22.0976 10.6834 21.7071 10.2929C21.3166 9.90237 20.6834 9.90237 20.2929 10.2929L19.9014 10.6844C19.5684 8.47193 18.445 6.68078 17.3571 5.59289C16.0544 4.29016 13.8084 3 11 3Z" fill="#65666A"/>
</svg>
