<svg width="24" height="24" viewBox="0 0 24 24" fill="none" xmlns="http://www.w3.org/2000/svg">
<g clip-path="url(#clip0_127_2950)">
<path fill-rule="evenodd" clip-rule="evenodd" d="M0 12C0 5.37258 5.37258 0 12 0C18.6274 0 24 5.37258 24 12C24 18.6274 18.6274 24 12 24C5.37258 24 0 18.6274 0 12ZM10.6047 7.53488C10.6047 7.07251 10.2298 6.69767 9.76744 6.69767C9.30507 6.69767 8.93023 7.07251 8.93023 7.53488V16.4651C8.93023 16.9275 9.30507 17.3023 9.76744 17.3023C10.2298 17.3023 10.6047 16.9275 10.6047 16.4651V7.53488ZM15.0698 7.53488C15.0698 7.07251 14.6949 6.69767 14.2326 6.69767C13.7702 6.69767 13.3953 7.07251 13.3953 7.53488V16.4651C13.3953 16.9275 13.7702 17.3023 14.2326 17.3023C14.6949 17.3023 15.0698 16.9275 15.0698 16.4651V7.53488Z" fill="#252528"/>
</g>
<defs>
<clipPath id="clip0_127_2950">
<rect width="24" height="24" fill="white"/>
</clipPath>
</defs>
</svg>
