<svg width="16" height="16" viewBox="0 0 16 16" fill="none" xmlns="http://www.w3.org/2000/svg">
<path d="M13.6555 2.3453C13.1108 1.79996 12.3861 1.5 11.6141 1.5C10.8435 1.5 10.1188 1.79996 9.57279 2.3453L2.55078 9.36735C2.27878 9.63868 2.10146 9.9833 2.03812 10.3626L1.51147 13.5213C1.46681 13.7887 1.55413 14.062 1.74613 14.2533C1.9048 14.412 2.11944 14.4993 2.34078 14.4993C2.38611 14.4993 2.43281 14.496 2.47815 14.488L5.63745 13.9613C6.01612 13.8987 6.36012 13.7213 6.63212 13.4493L13.6541 6.42733C14.1995 5.88199 14.5001 5.15732 14.5001 4.38599C14.5001 3.61465 14.2015 2.89063 13.6555 2.3453ZM5.9268 12.7427C5.8028 12.8667 5.64681 12.9467 5.47481 12.9753L2.53613 13.4647L3.02547 10.5267C3.05414 10.354 3.1348 10.198 3.25814 10.0747L8.64681 4.68604L11.3148 7.354L5.9268 12.7427ZM12.9488 5.7207L12.0221 6.6473L9.35412 3.97933L10.2808 3.05265C10.6375 2.69665 11.1108 2.5 11.6148 2.5C12.1188 2.5 12.5928 2.69599 12.9488 3.05265C13.3048 3.40932 13.5015 3.88264 13.5015 4.38664C13.5015 4.89064 13.3048 5.36404 12.9488 5.7207Z" fill="#1565C0"/>
</svg>
