<svg width="24" height="24" viewBox="0 0 24 24" fill="none" xmlns="http://www.w3.org/2000/svg">
<path fill-rule="evenodd" clip-rule="evenodd" d="M23.7803 7.71967C24.0732 8.01256 24.0732 8.48744 23.7803 8.78033L19.2803 13.2803C19.1397 13.421 18.9489 13.5 18.75 13.5C18.5511 13.5 18.3603 13.421 18.2197 13.2803L15.9697 11.0303C15.6768 10.7374 15.6768 10.2626 15.9697 9.96967C16.2626 9.67678 16.7374 9.67678 17.0303 9.96967L18.75 11.6893L22.7197 7.71967C23.0126 7.42678 23.4874 7.42678 23.7803 7.71967Z" fill="#252528"/>
<path d="M1.5 21C1.5 21 0 21 0 19.5C0 18 1.5 13.5 9 13.5C16.5 13.5 18 18 18 19.5C18 21 16.5 21 16.5 21H1.5Z" fill="#252528"/>
<path d="M9 12C11.4853 12 13.5 9.98528 13.5 7.5C13.5 5.01472 11.4853 3 9 3C6.51472 3 4.5 5.01472 4.5 7.5C4.5 9.98528 6.51472 12 9 12Z" fill="#252528"/>
</svg>
