<svg width="16" height="16" viewBox="0 0 16 16" fill="none" xmlns="http://www.w3.org/2000/svg">
<path fill-rule="evenodd" clip-rule="evenodd" d="M10.0487 3.47103C8.89397 2.81264 7.99704 2.30122 7.26859 1.96945C6.53742 1.63644 5.90274 1.44838 5.28559 1.51244C4.30611 1.6141 3.41444 2.12161 2.83335 2.91147C2.46631 3.41038 2.31349 4.05072 2.23985 4.84348C2.1665 5.63306 2.1665 6.65643 2.1665 7.97256V8.02741C2.1665 9.34353 2.1665 10.3669 2.23985 11.1565C2.31349 11.9493 2.46631 12.5896 2.83335 13.0885C3.41444 13.8784 4.30611 14.3859 5.28559 14.4875C5.90274 14.5516 6.53742 14.3635 7.26859 14.0305C7.99703 13.6988 8.89396 13.1873 10.0487 12.529L10.0955 12.5022C11.2502 11.8439 12.1471 11.3325 12.8024 10.8753C13.4595 10.4168 13.9438 9.96684 14.1978 9.40348C14.6005 8.51023 14.6005 7.48974 14.1978 6.59649C13.9438 6.03313 13.4595 5.58318 12.8024 5.12469C12.1471 4.66751 11.2502 4.15608 10.0955 3.49774L10.0487 3.47103ZM5.38883 2.50709C5.73543 2.47112 6.16986 2.56787 6.85411 2.87951C7.53617 3.19016 8.39377 3.67857 9.57674 4.35307C10.7598 5.0276 11.6168 5.51683 12.2301 5.94479C12.846 6.37453 13.146 6.69655 13.2862 7.00748C13.5711 7.6394 13.5711 8.36057 13.2862 8.99249C13.146 9.30342 12.846 9.62544 12.2301 10.0552C11.6168 10.4831 10.7597 10.9724 9.57674 11.6469C8.39377 12.3214 7.53617 12.8098 6.85411 13.1205C6.16986 13.4321 5.73543 13.5289 5.38883 13.4929C4.68706 13.42 4.05143 13.0567 3.63885 12.4959C3.43629 12.2206 3.30432 11.8041 3.23556 11.064C3.16702 10.3262 3.1665 9.34929 3.1665 7.99999C3.1665 6.65068 3.16702 5.6738 3.23556 4.93597C3.30432 4.19585 3.43629 3.7794 3.63885 3.50406C4.05143 2.94326 4.68706 2.57994 5.38883 2.50709Z" fill="#1565C0"/>
</svg>
