<svg width="24" height="24" viewBox="0 0 24 24" fill="none" xmlns="http://www.w3.org/2000/svg">
<path fill-rule="evenodd" clip-rule="evenodd" d="M18.9173 1.66291C19.9234 1.48436 20.8863 1.44508 21.6681 1.63578C21.8438 1.67797 22.0039 1.76908 22.13 1.89858C22.2546 2.02659 22.3408 2.18688 22.3789 2.36125C22.5625 3.16618 22.5244 4.13729 22.3453 5.151C22.164 6.17756 21.8288 7.29849 21.3753 8.42367C20.4716 10.6659 19.0689 12.9951 17.3786 14.6766C16.8817 15.1765 16.3493 15.6394 15.7856 16.0617C15.8225 16.982 15.7175 17.9343 15.3424 18.7951L15.3421 18.7959C14.7343 20.1859 13.6394 21.0587 12.5849 21.6007C11.5334 22.1411 10.4765 22.3774 9.84934 22.4782C9.67198 22.5069 9.4904 22.4944 9.31863 22.4416C9.14687 22.3889 8.98953 22.2974 8.85876 22.1742C8.728 22.051 8.62732 21.8994 8.5645 21.7311C8.50168 21.5627 8.47841 21.3822 8.49648 21.2035C8.49669 21.2013 8.49692 21.1992 8.49715 21.1971L8.82753 18.1868C8.79408 18.1835 8.76063 18.18 8.72721 18.1762C8.35908 18.1383 8.01545 17.9739 7.75483 17.7111C7.75424 17.7105 7.75364 17.7099 7.75304 17.7093L6.2878 16.244C6.2872 16.2434 6.28659 16.2428 6.28599 16.2422C6.02328 15.9818 5.85891 15.6383 5.82081 15.2704C5.81691 15.2353 5.81321 15.2001 5.80972 15.1649L2.79671 15.4957L2.79361 15.496L2.79128 15.4962C2.6123 15.5146 2.43149 15.4915 2.26288 15.4287C2.09427 15.3659 1.94238 15.2651 1.819 15.1341C1.69561 15.0032 1.60403 14.8456 1.55135 14.6736C1.49867 14.5015 1.48632 14.3197 1.51524 14.1421L1.51546 14.1407C1.61845 13.5155 1.85581 12.4603 2.39701 11.4094C2.93962 10.3558 3.81211 9.26166 5.20111 8.65093L5.2031 8.65006C6.06422 8.2744 7.02161 8.16958 7.94762 8.21C8.37001 7.64832 8.83258 7.11778 9.33177 6.62258C11.0182 4.93777 13.3826 3.53575 15.6396 2.63262C16.7723 2.17933 17.897 1.844 18.9173 1.66291ZM16.1968 4.02526C14.0743 4.87461 11.8982 6.17856 10.3911 7.68458L10.3891 7.68657C9.85081 8.22043 9.35998 8.80011 8.92216 9.41905C8.7677 9.6374 8.50865 9.75698 8.24228 9.73288C7.32935 9.65028 6.48481 9.72775 5.80395 10.0245C4.82674 10.4544 4.17184 11.2393 3.73056 12.0962C3.39063 12.7562 3.19201 13.4323 3.07771 13.9558L6.43317 13.5874C6.64387 13.5643 6.85452 13.6314 7.01301 13.7722C7.1715 13.9129 7.26304 14.1141 7.26499 14.3261C7.26738 14.5873 7.28307 14.8482 7.31197 15.1078C7.31226 15.1104 7.31254 15.113 7.31281 15.1156C7.31516 15.1389 7.32556 15.1607 7.34223 15.1772L7.34535 15.1803L8.81675 16.6517L8.81981 16.6548C8.8363 16.6714 8.8581 16.6819 8.88144 16.6842C8.88425 16.6845 8.88706 16.6848 8.88987 16.6851C9.14785 16.7139 9.40712 16.7295 9.66669 16.7321C9.87857 16.7341 10.0797 16.8257 10.2203 16.9842C10.361 17.1427 10.428 17.3532 10.4049 17.5638L10.0369 20.917C10.5603 20.8043 11.238 20.6064 11.8992 20.2666C12.7566 19.8259 13.5406 19.1715 13.9674 18.1956C14.2649 17.5127 14.3423 16.672 14.2639 15.7618C14.241 15.496 14.361 15.2381 14.5791 15.0844C15.1997 14.6471 15.781 14.1563 16.3161 13.6178L16.3193 13.6146C17.8335 12.1088 19.1366 9.96547 19.9841 7.86291C20.4063 6.81538 20.7082 5.79556 20.8682 4.89004C20.9979 4.15603 21.0286 3.52851 20.973 3.03435C20.5075 2.98186 19.9014 3.0117 19.1795 3.13983C18.279 3.29964 17.254 3.60222 16.1968 4.02526ZM9.61096 20.9973C9.61066 20.9973 9.61037 20.9974 9.61007 20.9974L9.61075 20.9973L9.61096 20.9973ZM15.4142 7.35014C15.1667 7.35014 14.9247 7.42355 14.7189 7.56108C14.5131 7.69862 14.3526 7.8941 14.2579 8.12281C14.1632 8.35152 14.1384 8.60318 14.1867 8.84597C14.2351 9.08876 14.3543 9.31177 14.5294 9.48679L14.53 9.48741C14.646 9.60369 14.7838 9.69594 14.9356 9.75889C15.0873 9.82183 15.25 9.85423 15.4142 9.85423C15.5785 9.85423 15.7412 9.82183 15.8929 9.75889C16.0446 9.69594 16.1825 9.60369 16.2985 9.48741L16.2991 9.48679C16.4742 9.31177 16.5934 9.08876 16.6417 8.84597C16.69 8.60318 16.6653 8.35152 16.5706 8.12281C16.4758 7.8941 16.3154 7.69862 16.1096 7.56108C15.9038 7.42355 15.6618 7.35014 15.4142 7.35014ZM13.8855 6.3139C14.338 6.01153 14.87 5.85014 15.4142 5.85014C15.9585 5.85014 16.4905 6.01153 16.943 6.3139C17.3955 6.61627 17.7482 7.04605 17.9564 7.54887C18.1646 8.05169 18.2191 8.60497 18.1129 9.13873C18.0067 9.67221 17.7448 10.1623 17.3603 10.5469C17.1049 10.8029 16.8016 11.0059 16.4677 11.1444C16.1337 11.2829 15.7758 11.3542 15.4142 11.3542C15.0527 11.3542 14.6947 11.2829 14.3608 11.1444C14.0271 11.0059 13.7239 10.8031 13.4686 10.5473C13.0838 10.1626 12.8218 9.67239 12.7156 9.13873C12.6094 8.60497 12.6638 8.05169 12.8721 7.54887C13.0803 7.04605 13.433 6.61628 13.8855 6.3139ZM5.88318 16.41C5.93365 16.8211 5.64128 17.1953 5.23015 17.2458C4.92916 17.2828 4.64912 17.4191 4.43438 17.6332C4.36234 17.7058 4.24601 17.9051 4.13117 18.2811C4.02358 18.6333 3.94304 19.0522 3.88443 19.4678C3.84788 19.7271 3.82085 19.9777 3.801 20.1998C4.02329 20.1799 4.27412 20.1529 4.53352 20.1163C4.94923 20.0576 5.36804 19.977 5.72003 19.8693C6.09667 19.7541 6.29512 19.6375 6.36657 19.5661L6.36784 19.5648C6.58239 19.3512 6.71868 19.0715 6.75473 18.7708C6.80405 18.3596 7.17743 18.0662 7.58869 18.1155C7.99996 18.1648 8.29338 18.5382 8.24406 18.9494C8.16789 19.5846 7.87998 20.1756 7.42679 20.6272C7.08506 20.9687 6.5901 21.1718 6.15878 21.3037C5.70248 21.4433 5.19852 21.5373 4.74312 21.6015C4.28429 21.6663 3.85547 21.7035 3.54258 21.7246C3.3856 21.7351 3.25652 21.7417 3.16585 21.7457C3.12049 21.7477 3.08467 21.749 3.05969 21.7499C3.0472 21.7503 3.03741 21.7506 3.0305 21.7508L3.02229 21.7511L3.01903 21.7511L3.01873 21.7511C3.01861 21.7512 3.0185 21.7512 2.99939 21.0014C2.24964 20.9823 2.24964 20.9822 2.24964 20.982L2.24974 20.9785L2.24997 20.9703C2.25018 20.9634 2.25049 20.9536 2.25091 20.9411C2.25176 20.9162 2.2531 20.8803 2.25509 20.835C2.25907 20.7444 2.26566 20.6154 2.27622 20.4585C2.29728 20.1457 2.33444 19.7171 2.39912 19.2584C2.46333 18.8031 2.55721 18.2992 2.6966 17.8429C2.82849 17.4111 3.03142 16.916 3.37238 16.5738L3.37365 16.5726C3.82507 16.1218 4.41417 15.8347 5.04739 15.757C5.45852 15.7065 5.83271 15.9989 5.88318 16.41ZM2.99939 21.0014L2.24964 20.9823C2.2444 21.1878 2.32372 21.3864 2.46906 21.5317C2.6144 21.6771 2.81302 21.7564 3.0185 21.7512L2.99939 21.0014Z" fill="#007779"/>
</svg>
