<svg width="48" height="48" viewBox="0 0 48 48" fill="none" xmlns="http://www.w3.org/2000/svg">
<path d="M15.3316 34.6905C15.8698 33.6525 16.9895 32.3327 18.5434 31.2761C20.0837 30.2288 21.9618 29.5 24 29.5C26.0382 29.5 27.9163 30.2288 29.4566 31.2761C31.0105 32.3327 32.1302 33.6525 32.6684 34.6905C33.0497 35.4259 33.955 35.713 34.6905 35.3316C35.4259 34.9503 35.713 34.045 35.3316 33.3095C34.5365 31.7761 33.0562 30.0958 31.1434 28.7953C29.217 27.4855 26.7618 26.5 24 26.5C21.2382 26.5 18.783 27.4855 16.8566 28.7953C14.9438 30.0958 13.4635 31.7761 12.6684 33.3095C12.287 34.045 12.5741 34.9503 13.3095 35.3316C14.045 35.713 14.9503 35.4259 15.3316 34.6905Z" fill="#EF4434"/>
<path fill-rule="evenodd" clip-rule="evenodd" d="M24 2.5C12.1259 2.5 2.5 12.1259 2.5 24C2.5 35.8741 12.1259 45.5 24 45.5C35.8741 45.5 45.5 35.8741 45.5 24C45.5 12.1259 35.8741 2.5 24 2.5ZM5.5 24C5.5 13.7827 13.7827 5.5 24 5.5C34.2173 5.5 42.5 13.7827 42.5 24C42.5 34.2173 34.2173 42.5 24 42.5C13.7827 42.5 5.5 34.2173 5.5 24Z" fill="#EF4434"/>
<path d="M20 16C20 17.1046 19.1046 18 18 18C16.8954 18 16 17.1046 16 16C16 14.8954 16.8954 14 18 14C19.1046 14 20 14.8954 20 16Z" fill="#EF4434"/>
<path d="M32 16C32 17.1046 31.1046 18 30 18C28.8954 18 28 17.1046 28 16C28 14.8954 28.8954 14 30 14C31.1046 14 32 14.8954 32 16Z" fill="#EF4434"/>
</svg>
