<svg width="25" height="24" viewBox="0 0 25 24" fill="none" xmlns="http://www.w3.org/2000/svg">
<g clip-path="url(#clip0_1756_13571)">
<path fill-rule="evenodd" clip-rule="evenodd" d="M1.75 10C1.75 4.61522 6.11522 0.25 11.5 0.25C16.8848 0.25 21.25 4.61522 21.25 10C21.25 15.3848 16.8848 19.75 11.5 19.75C6.11522 19.75 1.75 15.3848 1.75 10ZM11.5 1.75C6.94365 1.75 3.25 5.44365 3.25 10C3.25 14.5563 6.94365 18.25 11.5 18.25C16.0563 18.25 19.75 14.5563 19.75 10C19.75 5.44365 16.0563 1.75 11.5 1.75ZM10.4586 3.94423C10.5234 4.35334 10.2442 4.73752 9.83512 4.80232C8.01658 5.09035 6.59032 6.51661 6.30229 8.33515C6.23749 8.74426 5.85331 9.02339 5.4442 8.95859C5.03508 8.89379 4.75596 8.50961 4.82076 8.1005C5.21044 5.64012 7.14008 3.71047 9.60047 3.32079C10.0096 3.25599 10.3938 3.53511 10.4586 3.94423ZM18.9697 17.4698C19.2626 17.1769 19.7375 17.1769 20.0304 17.4698L24.0303 21.4697C24.3232 21.7626 24.3232 22.2375 24.0303 22.5304C23.7374 22.8233 23.2625 22.8233 22.9696 22.5304L18.9697 18.5304C18.6768 18.2375 18.6768 17.7626 18.9697 17.4698Z" fill="white"/>
</g>
<defs>
<clipPath id="clip0_1756_13571">
<rect width="24" height="24" fill="white" transform="translate(0.5)"/>
</clipPath>
</defs>
</svg>
