<svg width="24" height="24" viewBox="0 0 24 24" fill="none" xmlns="http://www.w3.org/2000/svg">
<path d="M20.9266 3.07245C20.2236 2.36945 19.2286 2.09351 18.2636 2.33551L5.15062 5.61347C3.40262 6.05047 2.23662 7.55451 2.24962 9.35651C2.26262 11.1585 3.44862 12.6454 5.20262 13.0584L9.84862 14.1514L10.9416 18.7974C11.3546 20.5514 12.8416 21.7374 14.6436 21.7504C14.6536 21.7504 14.6626 21.7504 14.6726 21.7504C16.4616 21.7504 17.9516 20.5874 18.3866 18.8494L21.6646 5.73651C21.9056 4.77051 21.6296 3.77545 20.9266 3.07245ZM20.2086 5.37042L16.9306 18.4835C16.6017 19.7955 15.4946 20.2345 14.6536 20.2495C13.8086 20.2435 12.7116 19.7695 12.4016 18.4525L11.2976 13.7624L15.5296 9.53046C15.8226 9.23746 15.8226 8.76242 15.5296 8.46942C15.2366 8.17642 14.7616 8.17642 14.4686 8.46942L10.2366 12.7015L5.54662 11.5975C4.22962 11.2875 3.75562 10.1904 3.74962 9.3454C3.74362 8.4994 4.20261 7.39642 5.51561 7.06842L18.6276 3.79047C18.7346 3.76347 18.8426 3.75043 18.9486 3.75043C19.2886 3.75043 19.6166 3.88451 19.8656 4.13251C20.1926 4.45951 20.3206 4.92242 20.2086 5.37042Z" fill="#252528"/>
</svg>
