<svg width="16" height="16" viewBox="0 0 16 16" fill="none" xmlns="http://www.w3.org/2000/svg">
<path d="M15.9655 0.68571C16.0397 0.500001 15.9962 0.287892 15.8548 0.146461C15.7133 0.00502989 15.5012 -0.0385071 15.3155 0.0357762L0.768413 5.85462C0.200958 6.0816 0.128684 6.8556 0.6443 7.18372L5.63904 10.3622L7.1703 12.7685C7.31855 13.0014 7.62759 13.0701 7.86056 12.9218C8.09353 12.7736 8.16221 12.4645 8.01396 12.2316L6.63838 10.07L14.1323 2.57605L12.237 7.31432C12.1344 7.57071 12.2591 7.8617 12.5155 7.96425C12.7719 8.06681 13.0629 7.9421 13.1655 7.68571L15.9655 0.68571ZM13.4252 1.86895L5.93127 9.36285L1.5927 6.60194L13.4252 1.86895Z" fill="#1565C0"/>
<path d="M16.0012 12.5C16.0012 14.433 14.4342 16 12.5012 16C10.5682 16 9.00122 14.433 9.00122 12.5C9.00122 10.567 10.5682 9 12.5012 9C14.4342 9 16.0012 10.567 16.0012 12.5ZM10.5012 12.5C10.5012 12.7761 10.7251 13 11.0012 13H14.0012C14.2774 13 14.5012 12.7761 14.5012 12.5C14.5012 12.2239 14.2774 12 14.0012 12H11.0012C10.7251 12 10.5012 12.2239 10.5012 12.5Z" fill="#1565C0"/>
</svg>
