<svg width="16" height="16" viewBox="0 0 16 16" fill="none" xmlns="http://www.w3.org/2000/svg">
<g clip-path="url(#clip0_242_7444)">
<path d="M13.1458 5.55056C14.6322 5.55056 15.8402 4.34096 15.8402 2.85616C15.8402 1.36976 14.6322 0.160156 13.1458 0.160156C11.6594 0.160156 10.4514 1.36976 10.4514 2.85456C10.4514 2.98576 10.4642 3.11376 10.4818 3.24176L4.81456 5.42096C4.32336 4.89776 3.62736 4.56976 2.85456 4.56976C1.36816 4.56976 0.160156 5.77936 0.160156 7.26576C0.160156 8.75216 1.36816 9.96016 2.85456 9.96016C3.43376 9.96016 3.96976 9.77456 4.40976 9.46256L8.24816 12.021C8.08976 12.3634 7.99856 12.7426 7.99856 13.1442C7.99856 14.6306 9.20656 15.8386 10.693 15.8386C12.1794 15.8386 13.3874 14.629 13.3874 13.1442C13.3874 11.6578 12.1778 10.4498 10.693 10.4498C9.96016 10.4498 9.29776 10.7442 8.81136 11.2194L5.10416 8.74736C5.38576 8.32176 5.55056 7.81296 5.55056 7.26576C5.55056 6.91216 5.48016 6.57456 5.35536 6.26416L10.7954 4.17136C11.2578 4.99216 12.1362 5.55056 13.1458 5.55056ZM2.85456 8.98096C1.90896 8.98096 1.13936 8.21136 1.13936 7.26576C1.13936 6.32016 1.90896 5.55056 2.85456 5.55056C3.80016 5.55056 4.56976 6.32016 4.56976 7.26576C4.56976 8.21136 3.80016 8.98096 2.85456 8.98096ZM10.6946 11.4306C11.6402 11.4306 12.4098 12.2002 12.4098 13.1458C12.4098 14.0914 11.6402 14.861 10.6946 14.861C9.74896 14.861 8.97936 14.0914 8.97936 13.1458C8.97936 12.2002 9.74896 11.4306 10.6946 11.4306ZM13.1458 1.14096C14.0914 1.14096 14.861 1.91056 14.861 2.85616C14.861 3.80176 14.0914 4.57136 13.1458 4.57136C12.2002 4.57136 11.4306 3.80176 11.4306 2.85616C11.4306 1.90896 12.2002 1.14096 13.1458 1.14096Z" fill="#1565C0"/>
</g>
<defs>
<clipPath id="clip0_242_7444">
<rect width="16" height="16" fill="white"/>
</clipPath>
</defs>
</svg>
