<svg width="16" height="16" viewBox="0 0 16 16" fill="none" xmlns="http://www.w3.org/2000/svg">
<path d="M12.0653 5.30868L13.0207 4.35335C13.216 4.15802 13.216 3.84133 13.0207 3.646C12.8253 3.45066 12.5087 3.45066 12.3133 3.646L11.328 4.63135C10.5273 4.02001 9.558 3.62064 8.5 3.52531V2.5H9.33333C9.60933 2.5 9.83333 2.276 9.83333 2C9.83333 1.724 9.60933 1.5 9.33333 1.5H6.66667C6.39067 1.5 6.16667 1.724 6.16667 2C6.16667 2.276 6.39067 2.5 6.66667 2.5H7.5V3.52531C4.70133 3.77931 2.5 6.136 2.5 9C2.5 12.0327 4.96733 14.5 8 14.5C11.0327 14.5 13.5 12.0327 13.5 9C13.5 7.57867 12.9533 6.28534 12.0653 5.30868ZM8 13.5C5.51867 13.5 3.5 11.4813 3.5 9C3.5 6.51867 5.51867 4.5 8 4.5C10.4813 4.5 12.5 6.51867 12.5 9C12.5 11.4813 10.4813 13.5 8 13.5ZM9.72333 10.354C9.89599 10.57 9.86133 10.884 9.64532 11.0566C9.55266 11.1306 9.44267 11.1667 9.33333 11.1667C9.18667 11.1667 9.04133 11.1027 8.94267 10.9793L7.60933 9.31266C7.53867 9.224 7.49933 9.114 7.49933 9V6.66667C7.49933 6.39067 7.72333 6.16667 7.99933 6.16667C8.27533 6.16667 8.49933 6.39067 8.49933 6.66667V8.82471L9.72333 10.354Z" fill="#252528"/>
</svg>
