<svg width="24" height="24" viewBox="0 0 24 24" fill="none" xmlns="http://www.w3.org/2000/svg">
<g clip-path="url(#clip0_51_793)">
<path d="M12 24C18.6274 24 24 18.6274 24 12C24 5.37258 18.6274 0 12 0C5.37258 0 0 5.37258 0 12C0 18.6274 5.37258 24 12 24Z" fill="url(#paint0_linear_51_793)"/>
<path d="M8.12305 12.8772L9.54675 16.8178C9.54675 16.8178 9.72475 17.1865 9.91535 17.1865C10.1059 17.1865 12.9408 14.2373 12.9408 14.2373L16.0933 8.14832L8.17385 11.86L8.12305 12.8772Z" fill="#C8DAEA"/>
<path d="M10.0105 13.8878L9.73721 16.7924C9.73721 16.7924 9.62281 17.6824 10.5126 16.7924C11.4024 15.9024 12.2541 15.2161 12.2541 15.2161" fill="#A9C6D8"/>
<path d="M8.14871 13.0178L5.22011 12.0636C5.22011 12.0636 4.87011 11.9216 4.98281 11.5996C5.00601 11.5332 5.05281 11.4767 5.19281 11.3796C5.84171 10.9273 17.2034 6.84359 17.2034 6.84359C17.2034 6.84359 17.5242 6.73549 17.7134 6.80739C17.7602 6.82188 17.8023 6.84854 17.8355 6.88465C17.8686 6.92076 17.8915 6.96501 17.9019 7.01289C17.9224 7.09746 17.9309 7.18446 17.9273 7.27139C17.9264 7.34659 17.9173 7.41629 17.9104 7.52559C17.8412 8.64209 15.7704 16.9749 15.7704 16.9749C15.7704 16.9749 15.6465 17.4625 15.2026 17.4792C15.0935 17.4827 14.9848 17.4642 14.883 17.4249C14.7812 17.3855 14.6884 17.326 14.6101 17.25C13.739 16.5007 10.7282 14.4773 10.0629 14.0323C10.0479 14.0221 10.0353 14.0087 10.0258 13.9932C10.0164 13.9777 10.0104 13.9603 10.0083 13.9423C9.99901 13.8954 10.05 13.8373 10.05 13.8373C10.05 13.8373 15.2926 9.17729 15.4321 8.68809C15.4429 8.65019 15.4021 8.63149 15.3473 8.64809C14.9991 8.77619 8.96291 12.5881 8.29671 13.0088C8.24875 13.0233 8.19807 13.0264 8.14871 13.0178Z" fill="white"/>
</g>
<defs>
<linearGradient id="paint0_linear_51_793" x1="12" y1="24" x2="12" y2="0" gradientUnits="userSpaceOnUse">
<stop stop-color="#1D93D2"/>
<stop offset="1" stop-color="#38B0E3"/>
</linearGradient>
<clipPath id="clip0_51_793">
<rect width="24" height="24" fill="white"/>
</clipPath>
</defs>
</svg>
