<svg width="16" height="16" viewBox="0 0 16 16" fill="none" xmlns="http://www.w3.org/2000/svg">
<path fill-rule="evenodd" clip-rule="evenodd" d="M9.69418 1.8868C10.0351 1.8328 10.3553 2.06541 10.4093 2.40634L11.7389 10.8017C11.7929 11.1426 11.5603 11.4628 11.2194 11.5168L4.87489 12.5216V12.4993H4.12489V12.6141C3.858 12.5785 3.63479 12.3718 3.59052 12.0923L2.26083 3.69692C2.20683 3.35599 2.43943 3.03584 2.78036 2.98184L9.69418 1.8868ZM2.84975 12.2096C2.95261 12.859 3.49447 13.3298 4.12489 13.3673V13.4993C4.12489 14.2587 4.7405 14.8743 5.49989 14.8743H12.4999C13.2593 14.8743 13.8749 14.2587 13.8749 13.4993V4.99928C13.8749 4.23989 13.2593 3.62428 12.4999 3.62428H11.3615L11.15 2.28901C11.0312 1.53897 10.3269 1.02724 9.57685 1.14604L2.66303 2.24108C1.91299 2.35987 1.40126 3.0642 1.52006 3.81425L2.84975 12.2096ZM12.4999 4.37428H11.4803L12.4797 10.6844C12.5985 11.4344 12.0868 12.1387 11.3367 12.2575L4.87489 13.281V13.4993C4.87489 13.8445 5.15471 14.1243 5.49989 14.1243H12.4999C12.8451 14.1243 13.1249 13.8445 13.1249 13.4993V4.99928C13.1249 4.65411 12.8451 4.37428 12.4999 4.37428ZM6.13451 4.98176C6.33907 4.94936 6.47863 4.75727 6.44623 4.55271C6.41383 4.34816 6.22174 4.2086 6.01718 4.24099L4.04181 4.55386C3.83725 4.58626 3.69769 4.77835 3.73009 4.98291C3.76249 5.18747 3.95458 5.32703 4.15913 5.29463L6.13451 4.98176ZM9.56688 7.47552C9.77144 7.44312 9.911 7.25103 9.8786 7.04648C9.8462 6.84192 9.65411 6.70236 9.44955 6.73476L4.51111 7.51693C4.30655 7.54933 4.16699 7.74142 4.19939 7.94597C4.23179 8.15053 4.42388 8.29009 4.62844 8.25769L9.56688 7.47552ZM8.89206 9.60733C9.09662 9.57493 9.23618 9.38284 9.20378 9.17829C9.17138 8.97373 8.97929 8.83417 8.77473 8.86657L4.82398 9.4923C4.61942 9.5247 4.47986 9.71679 4.51226 9.92135C4.54466 10.1259 4.73675 10.2655 4.94131 10.2331L8.89206 9.60733ZM9.11713 4.63592C9.38987 4.59272 9.57596 4.3366 9.53276 4.06386C9.48956 3.79112 9.23344 3.60503 8.9607 3.64823C8.68795 3.69143 8.50187 3.94755 8.54507 4.22029C8.58827 4.49304 8.84439 4.67912 9.11713 4.63592Z" fill="#252528"/>
</svg>
