<svg width="24" height="24" viewBox="0 0 24 24" fill="none" xmlns="http://www.w3.org/2000/svg">
<path fill-rule="evenodd" clip-rule="evenodd" d="M20.4802 6.42385C20.7984 6.68903 20.8414 7.16195 20.5762 7.48016L15.1469 13.9953C14.1116 15.2376 13.2826 16.2326 12.5332 16.9092C11.7591 17.6082 10.9679 18.0639 10 18.0639C9.03216 18.0639 8.24089 17.6082 7.46684 16.9092C6.71748 16.2326 5.88839 15.2376 4.85312 13.9953L3.42385 12.2802C3.15868 11.9619 3.20167 11.489 3.51988 11.2239C3.83809 10.9587 4.31101 11.0017 4.57618 11.3199L5.96686 12.9887C7.04969 14.2881 7.81143 15.1994 8.47213 15.796C9.11742 16.3787 9.56276 16.5639 10 16.5639C10.4373 16.5639 10.8826 16.3787 11.5279 15.796C12.1886 15.1994 12.9503 14.2881 14.0332 12.9887L19.4239 6.51988C19.689 6.20167 20.1619 6.15868 20.4802 6.42385Z" fill="white"/>
</svg>
