<svg width="24" height="24" viewBox="0 0 24 24" fill="none" xmlns="http://www.w3.org/2000/svg">
<path fill-rule="evenodd" clip-rule="evenodd" d="M17.0799 2.85938C16.4167 2.7195 15.7291 2.7086 15.0553 2.83138C14.0053 3.02267 13.0387 3.5294 12.284 4.28403C11.5294 5.03866 11.0227 6.00535 10.8314 7.05527C10.6401 8.1052 10.7733 9.18849 11.2133 10.1608C11.342 10.4452 11.281 10.7796 11.0603 11.0003L4.15031 17.9103C3.89313 18.1675 3.74866 18.5163 3.74866 18.88C3.74866 19.2437 3.89314 19.5925 4.15031 19.8496C4.40748 20.1068 4.75628 20.2513 5.11998 20.2513C5.48367 20.2513 5.83247 20.1068 6.08965 19.8496L12.9996 12.9397C13.2204 12.7189 13.5548 12.658 13.8392 12.7867C14.8115 13.2267 15.8948 13.3599 16.9447 13.1686C17.9946 12.9773 18.9613 12.4706 19.7159 11.7159C20.4706 10.9613 20.9773 9.99461 21.1686 8.94469C21.2914 8.27083 21.2805 7.58322 21.1406 6.92004L18.225 9.83562C17.8979 10.1563 17.458 10.3358 17 10.3358C16.5419 10.3358 16.1021 10.1562 15.775 9.83559L15.7696 9.83034L14.1643 8.22501C13.8437 7.89788 13.6641 7.45805 13.6641 6.99998C13.6641 6.54191 13.8437 6.1021 14.1644 5.77498L14.1696 5.76962L17.0799 2.85938ZM14.7864 1.35567C16.1363 1.10972 17.5291 1.281 18.7792 1.84668C19.0035 1.94819 19.1637 2.15332 19.2078 2.39554C19.252 2.63776 19.1744 2.88622 19.0003 3.06031L15.2339 6.82676C15.1891 6.8733 15.1641 6.93537 15.1641 6.99998C15.1641 7.06458 15.1891 7.12665 15.2338 7.17319L16.8268 8.76612C16.8733 8.81083 16.9354 8.83584 17 8.83584C17.0646 8.83584 17.1266 8.81084 17.1732 8.76614L20.9396 4.99965C21.1137 4.82556 21.3622 4.74799 21.6044 4.79213C21.8466 4.83626 22.0518 4.99647 22.1533 5.22078C22.719 6.47086 22.8902 7.86366 22.6443 9.21356C22.3983 10.5635 21.7468 11.8064 20.7766 12.7766C19.8063 13.7468 18.5635 14.3983 17.2136 14.6443C16.037 14.8587 14.8278 14.7561 13.709 14.3516L7.15031 20.9103C6.61183 21.4488 5.8815 21.7513 5.11998 21.7513C4.35846 21.7513 3.62812 21.4488 3.08965 20.9103C2.55117 20.3718 2.24866 19.6415 2.24866 18.88C2.24866 18.1185 2.55117 17.3881 3.08965 16.8497L9.64833 10.291C9.24389 9.17212 9.14129 7.96296 9.35567 6.7864C9.60162 5.4365 10.2531 4.19361 11.2234 3.22337C12.1936 2.25313 13.4365 1.60163 14.7864 1.35567Z" fill="#1565C0"/>
</svg>
