<svg width="16" height="16" viewBox="0 0 16 16" fill="none" xmlns="http://www.w3.org/2000/svg">
<path d="M14 3.49935H11.6273C11.268 3.49935 10.95 3.27001 10.8367 2.93001L10.626 2.29736C10.4667 1.82003 10.022 1.5 9.51933 1.5H6.47998C5.97731 1.5 5.53267 1.82001 5.37333 2.29801L5.16268 2.93001C5.04935 3.27068 4.73132 3.5 4.37199 3.5H2C1.724 3.5 1.5 3.724 1.5 4C1.5 4.276 1.724 4.5 2 4.5H2.86532L3.37667 12.1667C3.464 13.4753 4.55934 14.5 5.87134 14.5H10.1293C11.4406 14.5 12.5366 13.4747 12.624 12.1667L13.1353 4.5H14C14.276 4.5 14.5 4.276 14.5 4C14.5 3.724 14.276 3.49935 14 3.49935ZM6.32198 2.61336C6.34465 2.54536 6.40798 2.49935 6.47998 2.49935H9.51933C9.59133 2.49935 9.65466 2.54538 9.67733 2.61271L9.88798 3.24536C9.91731 3.33336 9.95399 3.41803 9.99532 3.4987H6.00334C6.04467 3.41736 6.08134 3.33338 6.11068 3.24471L6.32198 2.61336ZM11.6253 12.0994C11.5733 12.8847 10.916 13.4993 10.1287 13.4993H5.87069C5.08402 13.4993 4.42598 12.8847 4.37398 12.0994L3.86735 4.49935H4.37199C4.44332 4.49935 4.51333 4.49067 4.58333 4.48267C4.61133 4.48733 4.63668 4.49935 4.66602 4.49935H11.3327C11.362 4.49935 11.3873 4.48733 11.4153 4.48267C11.4853 4.49067 11.5547 4.49935 11.6267 4.49935H12.1313L11.6253 12.0994ZM9.83333 7.33268V10.666C9.83333 10.942 9.60933 11.166 9.33333 11.166C9.05733 11.166 8.83333 10.942 8.83333 10.666V7.33268C8.83333 7.05668 9.05733 6.83268 9.33333 6.83268C9.60933 6.83268 9.83333 7.05668 9.83333 7.33268ZM7.16667 7.33268V10.666C7.16667 10.942 6.94267 11.166 6.66667 11.166C6.39067 11.166 6.16667 10.942 6.16667 10.666V7.33268C6.16667 7.05668 6.39067 6.83268 6.66667 6.83268C6.94267 6.83268 7.16667 7.05668 7.16667 7.33268Z" fill="#1565C0"/>
</svg>
