<svg width="24" height="24" viewBox="0 0 24 24" fill="none" xmlns="http://www.w3.org/2000/svg">
<g clip-path="url(#clip0_51_976)">
<path d="M22.8362 7.42319C22.2434 6.02399 21.3962 4.76399 20.3162 3.68399C19.2362 2.60399 17.9786 1.75679 16.577 1.16399C15.1274 0.55199 13.5866 0.23999 12.0002 0.23999C10.4138 0.23999 8.87303 0.55199 7.42343 1.16399C6.02423 1.75679 4.76423 2.60399 3.68423 3.68399C2.60423 4.76399 1.75703 6.02159 1.16423 7.42319C0.552234 8.87279 0.240234 10.4136 0.240234 12C0.240234 13.5864 0.552234 15.1272 1.16423 16.5768C1.75703 17.9784 2.60423 19.236 3.68423 20.316C4.76423 21.396 6.02183 22.2432 7.42343 22.836C8.87303 23.448 10.4138 23.76 12.0002 23.76C13.5866 23.76 15.1274 23.448 16.577 22.836C17.9762 22.2432 19.2362 21.396 20.3162 20.316C21.3962 19.236 22.2434 17.9784 22.8362 16.5768C23.4482 15.1272 23.7602 13.5864 23.7602 12C23.7602 10.4136 23.4482 8.87279 22.8362 7.42319ZM12.0218 13.368C9.72023 13.368 7.84583 11.4936 7.84583 9.19199C7.84583 6.89039 9.71783 5.01599 12.0218 5.01599C14.3258 5.01599 16.1978 6.88799 16.1978 9.19199C16.1978 11.4936 14.3234 13.368 12.0218 13.368ZM7.51703 16.116C8.80343 15.0936 10.3562 14.5536 12.0026 14.5536C13.649 14.5536 15.197 15.0936 16.4834 16.1136C17.7098 17.0856 18.5954 18.4464 18.9866 19.9512C18.1322 20.7048 17.1674 21.312 16.1186 21.7536C14.8154 22.3056 13.4306 22.584 12.0002 22.584C10.5698 22.584 9.18503 22.3032 7.88183 21.7536C6.83543 21.3096 5.87063 20.7048 5.01623 19.9512C5.40503 18.4488 6.29063 17.088 7.51703 16.116ZM17.2154 15.192C16.4906 14.616 15.6794 14.1672 14.8106 13.86C14.777 13.848 14.741 13.836 14.705 13.824C15.4466 13.392 16.0778 12.7896 16.541 12.06C17.0858 11.2032 17.3762 10.212 17.3762 9.19439C17.3762 6.24239 14.9762 3.84239 12.0242 3.84239C9.07223 3.84239 6.67223 6.24239 6.67223 9.19439C6.67223 10.2096 6.96023 11.1984 7.50263 12.0528C7.96343 12.78 8.58984 13.3824 9.32903 13.8144C9.28343 13.8288 9.24023 13.8456 9.19463 13.86C8.32343 14.1696 7.51463 14.6184 6.78743 15.1968C5.55143 16.1784 4.59623 17.5272 4.07543 19.0152C3.31223 18.1536 2.69783 17.1816 2.24903 16.1232C1.69463 14.8152 1.41623 13.4304 1.41623 12C1.41623 10.5696 1.69703 9.18479 2.24663 7.88159C2.77943 6.62159 3.54263 5.48879 4.51463 4.51679C5.48663 3.54479 6.61943 2.78159 7.87943 2.24879C9.18503 1.69679 10.5698 1.41599 12.0002 1.41599C13.4306 1.41599 14.8154 1.69679 16.1186 2.24639C17.3786 2.77919 18.5114 3.54239 19.4834 4.51439C20.4554 5.48639 21.2186 6.61919 21.7514 7.87919C22.3034 9.18239 22.5818 10.5696 22.5818 11.9976C22.5818 13.428 22.301 14.8128 21.7514 16.116C21.305 17.1744 20.6906 18.1464 19.9274 19.0056C19.409 17.52 18.4514 16.1736 17.2154 15.192Z" fill="#252528"/>
</g>
<defs>
<clipPath id="clip0_51_976">
<rect width="24" height="24" fill="white"/>
</clipPath>
</defs>
</svg>
