<svg width="16" height="16" viewBox="0 0 16 16" fill="none" xmlns="http://www.w3.org/2000/svg">
<g clip-path="url(#clip0_269_11633)">
<path fill-rule="evenodd" clip-rule="evenodd" d="M2.81138 0.5H13.1886C14.4651 0.5 15.5 1.53485 15.5 2.81138V13.1886C15.5 14.4651 14.4651 15.5 13.1886 15.5H2.81138C1.53485 15.5 0.5 14.4651 0.5 13.1886V2.81138C0.5 1.53485 1.53485 0.5 2.81138 0.5Z" fill="#4C75A3"/>
<path fill-rule="evenodd" clip-rule="evenodd" d="M7.87417 11.0008H8.48775C8.48775 11.0008 8.67304 10.9804 8.76779 10.8784C8.85487 10.7847 8.85209 10.6089 8.85209 10.6089C8.85209 10.6089 8.84008 9.7856 9.22213 9.66436C9.59891 9.54485 10.0826 10.4601 10.5953 10.812C10.9829 11.0782 11.2776 11.02 11.2776 11.02L12.6485 11.0008C12.6485 11.0008 13.3656 10.9565 13.0255 10.3927C12.9977 10.3467 12.8274 9.97563 12.0062 9.21334C11.1465 8.41548 11.2618 8.54456 12.2972 7.16446C12.9278 6.32398 13.1799 5.81089 13.1011 5.59115C13.0261 5.38178 12.5622 5.43709 12.5622 5.43709L11.0187 5.44663C11.0187 5.44663 10.9042 5.43105 10.8194 5.4818C10.7364 5.53143 10.6832 5.6474 10.6832 5.6474C10.6832 5.6474 10.4388 6.29774 10.1131 6.85091C9.42576 8.01799 9.15089 8.07977 9.03854 8.00718C8.77715 7.83826 8.84247 7.32872 8.84247 6.96662C8.84247 5.83555 9.01403 5.36396 8.50839 5.24189C8.34063 5.2014 8.21703 5.17461 7.78792 5.17024C7.23713 5.16464 6.77107 5.17194 6.50712 5.30124C6.33151 5.38724 6.19603 5.57882 6.27859 5.58985C6.38064 5.60344 6.61162 5.6522 6.73409 5.81885C6.89231 6.03411 6.88678 6.51734 6.88678 6.51734C6.88678 6.51734 6.9777 7.84878 6.67452 8.01412C6.46649 8.12756 6.18106 7.89599 5.56828 6.83714C5.25437 6.29477 5.01727 5.69518 5.01727 5.69518C5.01727 5.69518 4.97162 5.58316 4.89007 5.52319C4.79117 5.45053 4.65297 5.42751 4.65297 5.42751L3.18615 5.43709C3.18615 5.43709 2.96601 5.44323 2.88511 5.53899C2.81314 5.62423 2.87936 5.8003 2.87936 5.8003C2.87936 5.8003 4.02765 8.48691 5.32797 9.8408C6.52039 11.0823 7.87417 11.0008 7.87417 11.0008Z" fill="white"/>
</g>
<defs>
<clipPath id="clip0_269_11633">
<rect width="16" height="16" fill="white"/>
</clipPath>
</defs>
</svg>
