<svg width="24" height="24" viewBox="0 0 24 24" fill="none" xmlns="http://www.w3.org/2000/svg">
<g clip-path="url(#clip0_51_799)">
<path fill-rule="evenodd" clip-rule="evenodd" d="M4.21708 0.75H19.7829C21.6977 0.75 23.25 2.30227 23.25 4.21708V19.7829C23.25 21.6977 21.6977 23.25 19.7829 23.25H4.21708C2.30227 23.25 0.75 21.6977 0.75 19.7829V4.21708C0.75 2.30227 2.30227 0.75 4.21708 0.75Z" fill="#4C75A3"/>
<path fill-rule="evenodd" clip-rule="evenodd" d="M11.8113 16.5007H12.7316C12.7316 16.5007 13.0096 16.4701 13.1517 16.3172C13.2823 16.1766 13.2781 15.9129 13.2781 15.9129C13.2781 15.9129 13.2601 14.6779 13.8332 14.4961C14.3984 14.3168 15.1239 15.6896 15.8929 16.2175C16.4744 16.6168 16.9163 16.5294 16.9163 16.5294L18.9727 16.5007C18.9727 16.5007 20.0484 16.4343 19.5383 15.5886C19.4966 15.5195 19.2412 14.963 18.0093 13.8195C16.7198 12.6227 16.8926 12.8164 18.4458 10.7462C19.3917 9.48548 19.7698 8.71585 19.6517 8.38624C19.5391 8.07218 18.8433 8.15514 18.8433 8.15514L16.528 8.16946C16.528 8.16946 16.3563 8.14609 16.2291 8.22221C16.1046 8.29666 16.0248 8.47061 16.0248 8.47061C16.0248 8.47061 15.6582 9.44612 15.1696 10.2759C14.1386 12.0265 13.7263 12.1192 13.5578 12.0103C13.1657 11.7569 13.2637 10.9926 13.2637 10.4494C13.2637 8.75283 13.521 8.04545 12.7626 7.86234C12.5109 7.80161 12.3256 7.76143 11.6819 7.75487C10.8557 7.74647 10.1566 7.75742 9.76068 7.95137C9.49727 8.08037 9.29404 8.36775 9.41789 8.38428C9.57095 8.40467 9.91744 8.47782 10.1011 8.72778C10.3385 9.05068 10.3302 9.77552 10.3302 9.77552C10.3302 9.77552 10.4665 11.7727 10.0118 12.0207C9.69973 12.1908 9.27159 11.8435 8.35242 10.2552C7.88155 9.44167 7.52591 8.54229 7.52591 8.54229C7.52591 8.54229 7.45743 8.37425 7.3351 8.2843C7.18675 8.17531 6.97946 8.14077 6.97946 8.14077L4.77923 8.15514C4.77923 8.15514 4.44902 8.16436 4.32767 8.30799C4.21971 8.43585 4.31905 8.69997 4.31905 8.69997C4.31905 8.69997 6.04147 12.7299 7.99195 14.7607C9.78058 16.6229 11.8113 16.5007 11.8113 16.5007Z" fill="white"/>
</g>
<defs>
<clipPath id="clip0_51_799">
<rect width="24" height="24" fill="white"/>
</clipPath>
</defs>
</svg>
