<svg width="24" height="24" viewBox="0 0 24 24" fill="none" xmlns="http://www.w3.org/2000/svg">
<g clip-path="url(#clip0_272_6076)">
<path fill-rule="evenodd" clip-rule="evenodd" d="M11.2969 0.703125C11.2969 0.314812 11.6117 0 12 0C12.3883 0 12.7031 0.314812 12.7031 0.703125V5.22188C12.7031 5.61019 12.3883 5.925 12 5.925C11.6117 5.925 11.2969 5.61019 11.2969 5.22188V0.703125ZM11.2969 18.7781C11.2969 18.3898 11.6117 18.075 12 18.075C12.3883 18.075 12.7031 18.3898 12.7031 18.7781V23.2968C12.7031 23.6852 12.3883 24 12 24C11.6117 24 11.2969 23.6852 11.2969 23.2968V18.7781ZM9.21994 5.77841L6.96057 1.86506C6.76641 1.52873 6.33638 1.41351 6.0001 1.60771C5.66382 1.80187 5.5486 2.2319 5.74275 2.56818L8.00213 6.48154C8.13235 6.70714 8.36869 6.83319 8.61169 6.83319C8.73099 6.83319 8.85188 6.80282 8.9626 6.73888C9.29888 6.54472 9.4141 6.11469 9.21994 5.77841ZM15.9982 17.5185L18.2575 21.4318C18.4517 21.768 18.3364 22.1981 18.0002 22.3922C17.8894 22.4562 17.7686 22.4865 17.6493 22.4865C17.4063 22.4865 17.1699 22.3605 17.0397 22.1349L14.7804 18.2216C14.5862 17.8853 14.7014 17.4553 15.0377 17.2612C15.374 17.067 15.804 17.1822 15.9982 17.5185ZM6.48137 8.00204L2.56797 5.74262C2.23159 5.54837 1.80166 5.66364 1.6075 5.99997C1.41334 6.33625 1.52856 6.76628 1.86484 6.96043L5.77825 9.2199C5.88897 9.28383 6.00986 9.31421 6.12916 9.31421C6.37216 9.31421 6.6085 9.18812 6.73872 8.96251C6.93287 8.62623 6.81766 8.1962 6.48137 8.00204ZM18.2218 14.7802L22.1351 17.0395C22.4714 17.2337 22.5866 17.6637 22.3924 18.0001C22.2622 18.2256 22.0259 18.3517 21.7829 18.3517C21.6636 18.3517 21.5427 18.3213 21.432 18.2574L17.5187 15.9981C17.1824 15.804 17.0672 15.3739 17.2613 15.0376C17.4554 14.7013 17.8854 14.5861 18.2218 14.7802ZM5.22192 11.297H0.703125C0.314812 11.297 0 11.6118 0 12.0001C0 12.3884 0.314812 12.7033 0.703125 12.7033H5.22192C5.61023 12.7033 5.92505 12.3884 5.92505 12.0001C5.92505 11.6118 5.61023 11.297 5.22192 11.297ZM18.7783 11.297H23.297C23.6853 11.297 24.0001 11.6118 24.0001 12.0001C24.0001 12.3884 23.6853 12.7033 23.297 12.7033H18.7783C18.39 12.7033 18.0752 12.3884 18.0752 12.0001C18.0752 11.6118 18.39 11.297 18.7783 11.297ZM6.73873 15.0375C6.54457 14.7012 6.11463 14.586 5.77826 14.7802L1.86484 17.0396C1.52856 17.2337 1.41334 17.6638 1.6075 18.0001C1.73772 18.2257 1.97406 18.3517 2.21706 18.3517C2.33636 18.3517 2.45725 18.3213 2.56797 18.2574L6.48138 15.998C6.81766 15.8039 6.93288 15.3738 6.73873 15.0375ZM21.4315 5.74276C21.7678 5.54861 22.1978 5.66378 22.3919 6.00011C22.5861 6.33639 22.4709 6.76642 22.1346 6.96058L18.2213 9.21996C18.1106 9.2839 17.9896 9.31427 17.8704 9.31427C17.6274 9.31427 17.391 9.18818 17.2608 8.96257C17.0667 8.62628 17.1819 8.19625 17.5182 8.00214L21.4315 5.74276ZM8.9626 17.2612C8.62632 17.0669 8.19624 17.1822 8.00213 17.5185L5.74275 21.4319C5.5486 21.7682 5.66382 22.1982 6.0001 22.3923C6.11082 22.4563 6.23171 22.4867 6.351 22.4867C6.594 22.4867 6.83039 22.3606 6.96057 22.135L9.21994 18.2216C9.4141 17.8854 9.29888 17.4553 8.9626 17.2612ZM17.0397 1.86514C17.2338 1.52881 17.6639 1.41355 18.0002 1.6078C18.3365 1.80195 18.4517 2.23198 18.2575 2.56826L15.9982 6.48153C15.868 6.70709 15.6316 6.83319 15.3886 6.83319C15.2693 6.83319 15.1484 6.80281 15.0377 6.73887C14.7014 6.54472 14.5862 6.11469 14.7804 5.77841L17.0397 1.86514Z" fill="#252528"/>
</g>
<defs>
<clipPath id="clip0_272_6076">
<rect width="24" height="24" fill="white"/>
</clipPath>
</defs>
</svg>
