<svg width="24" height="24" viewBox="0 0 24 24" fill="none" xmlns="http://www.w3.org/2000/svg">
<g clip-path="url(#clip0_5_4810)">
<path d="M12 23.9756C18.6139 23.9756 23.9756 18.6139 23.9756 12C23.9756 5.38606 18.6139 0.0244141 12 0.0244141C5.38606 0.0244141 0.0244141 5.38606 0.0244141 12C0.0244141 18.6139 5.38606 23.9756 12 23.9756Z" fill="#FC3F1D"/>
<path d="M16.3334 19.5177H13.7046V6.51553H12.5334C10.3868 6.51553 9.26233 7.58886 9.26233 9.19108C9.26233 11.0089 10.0379 11.8511 11.6423 12.9244L12.9646 13.8155L9.16456 19.5155H6.33789L9.75789 14.4266C7.79122 13.0222 6.68456 11.6511 6.68456 9.33775C6.68456 6.44664 8.70011 4.47998 12.5157 4.47998H16.3157V19.5133H16.3334V19.5177Z" fill="white"/>
</g>
<defs>
<clipPath id="clip0_5_4810">
<rect width="24" height="24" fill="white"/>
</clipPath>
</defs>
</svg>
