<svg width="24" height="24" viewBox="0 0 24 24" fill="none" xmlns="http://www.w3.org/2000/svg">
<path fill-rule="evenodd" clip-rule="evenodd" d="M9.75 18C10.8334 18 11.9062 17.7866 12.9071 17.372C13.9081 16.9574 14.8175 16.3497 15.5836 15.5836C16.3497 14.8175 16.9574 13.9081 17.372 12.9071C17.7866 11.9062 18 10.8334 18 9.75C18 8.66659 17.7866 7.5938 17.372 6.59286C16.9574 5.59193 16.3497 4.68245 15.5836 3.91637C14.8175 3.15029 13.9081 2.5426 12.9071 2.12799C11.9062 1.71339 10.8334 1.5 9.75 1.5C7.56196 1.5 5.46354 2.36919 3.91637 3.91637C2.36919 5.46354 1.5 7.56196 1.5 9.75C1.5 11.938 2.36919 14.0365 3.91637 15.5836C5.46354 17.1308 7.56196 18 9.75 18ZM19.5 9.75C19.5 11.8359 18.8316 13.8529 17.6133 15.5147C17.6745 15.5602 17.732 15.6103 17.7856 15.6645L23.5606 21.4395C23.8419 21.721 23.9998 22.1026 23.9997 22.5005C23.9995 22.8984 23.8413 23.28 23.5599 23.5612C23.2784 23.8425 22.8967 24.0004 22.4988 24.0003C22.1009 24.0002 21.7194 23.842 21.4381 23.5605L15.6631 17.7855C15.6094 17.7303 15.5616 17.6736 15.5168 17.614C15.9777 17.2749 16.4074 16.8966 16.8012 16.4837C16.7496 16.5378 16.6973 16.5913 16.6443 16.6443C14.8158 18.4728 12.3359 19.5 9.75 19.5C7.16414 19.5 4.68419 18.4728 2.85571 16.6443C1.02723 14.8158 0 12.3359 0 9.75C0 7.16414 1.02723 4.68419 2.85571 2.85571C4.68419 1.02723 7.16414 0 9.75 0C12.3359 0 14.8158 1.02723 16.6443 2.85571C18.4728 4.68419 19.5 7.16414 19.5 9.75ZM15.5168 17.614L15.5161 17.6145V17.613L15.5168 17.614ZM10.2803 4.71967C10.1397 4.57902 9.94891 4.5 9.75 4.5C9.55109 4.5 9.36032 4.57902 9.21967 4.71967C9.07902 4.86032 9 5.05109 9 5.25V9H5.25C5.05109 9 4.86032 9.07902 4.71967 9.21967C4.57902 9.36032 4.5 9.55109 4.5 9.75C4.5 9.94891 4.57902 10.1397 4.71967 10.2803C4.86032 10.421 5.05109 10.5 5.25 10.5H9V14.25C9 14.4489 9.07902 14.6397 9.21967 14.7803C9.36032 14.921 9.55109 15 9.75 15C9.94891 15 10.1397 14.921 10.2803 14.7803C10.421 14.6397 10.5 14.4489 10.5 14.25V10.5H14.25C14.4489 10.5 14.6397 10.421 14.7803 10.2803C14.921 10.1397 15 9.94891 15 9.75C15 9.55109 14.921 9.36032 14.7803 9.21967C14.6397 9.07902 14.4489 9 14.25 9H10.5V5.25C10.5 5.05109 10.421 4.86032 10.2803 4.71967Z" fill="#65666A"/>
</svg>
