<svg width="16" height="16" viewBox="0 0 16 16" fill="none" xmlns="http://www.w3.org/2000/svg">
<path fill-rule="evenodd" clip-rule="evenodd" d="M6 0.833984C6.27614 0.833984 6.5 1.05784 6.5 1.33398V2.17439C6.94616 2.16732 7.44189 2.16732 7.99263 2.16732H8.00737C8.55811 2.16732 9.05384 2.16732 9.5 2.17439V1.33398C9.5 1.05784 9.72386 0.833984 10 0.833984C10.2761 0.833984 10.5 1.05784 10.5 1.33398V2.2097C11.5079 2.2729 12.2823 2.43622 12.9198 2.89942C13.2453 3.13586 13.5315 3.42204 13.7679 3.74747C14.1585 4.28502 14.3333 4.91461 14.4175 5.69164C14.5 6.45306 14.5 7.41279 14.5 8.63714V8.67496C14.5 9.44821 14.5 10.113 14.4804 10.6844C14.4376 11.9334 14.3025 12.8514 13.7679 13.5872C13.5315 13.9126 13.2453 14.1988 12.9198 14.4352C12.1841 14.9698 11.2661 15.1049 10.0171 15.1477C9.44561 15.1673 8.78064 15.1673 8.00719 15.1673H7.96982C6.74547 15.1673 5.78574 15.1673 5.02432 15.0848C4.24729 15.0006 3.61771 14.8258 3.08016 14.4352C2.75473 14.1988 2.46854 13.9126 2.2321 13.5872C1.84155 13.0496 1.66667 12.42 1.58249 11.643C1.49999 10.8816 1.49999 9.92184 1.5 8.69748V8.63715C1.49999 7.41279 1.49999 6.45306 1.58249 5.69164C1.66667 4.91461 1.84155 4.28502 2.2321 3.74747C2.46854 3.42204 2.75473 3.13586 3.08016 2.89942C3.7177 2.43622 4.49206 2.2729 5.5 2.2097V1.33398C5.5 1.05784 5.72386 0.833984 6 0.833984ZM5.5 3.21215C4.59197 3.2746 4.06785 3.41789 3.66794 3.70844C3.42741 3.8832 3.21588 4.09472 3.04112 4.33526C2.79506 4.67393 2.65163 5.10741 2.57667 5.79935C2.50069 6.50065 2.5 7.40627 2.5 8.66732C2.5 9.92837 2.50069 10.834 2.57667 11.5353C2.65163 12.2272 2.79506 12.6607 3.04112 12.9994C3.21588 13.2399 3.42741 13.4514 3.66794 13.6262C4.00661 13.8723 4.44009 14.0157 5.13203 14.0907C5.83333 14.1666 6.73895 14.1673 8 14.1673C8.56557 14.1673 9.06119 14.1673 9.50122 14.1601C9.50413 13.8437 9.51398 13.6107 9.5472 13.401C9.80699 11.7607 11.0934 10.4743 12.7337 10.2145C12.9434 10.1813 13.1764 10.1714 13.4928 10.1685C13.5 9.72851 13.5 9.23288 13.5 8.66732C13.5 7.40627 13.4993 6.50065 13.4233 5.79935C13.3484 5.10741 13.2049 4.67393 12.9589 4.33526C12.7841 4.09473 12.5726 3.8832 12.3321 3.70844C11.9321 3.41789 11.408 3.2746 10.5 3.21215V3.33398C10.5 3.61013 10.2761 3.83398 10 3.83398C9.72386 3.83398 9.5 3.61013 9.5 3.33398V3.17451C9.06028 3.16735 8.56504 3.16732 8 3.16732C7.43496 3.16732 6.93972 3.16735 6.5 3.17451V3.33398C6.5 3.61013 6.27614 3.83398 6 3.83398C5.72386 3.83398 5.5 3.61013 5.5 3.33398V3.21215ZM13.455 11.1692C13.1851 11.1723 13.0268 11.1806 12.8901 11.2022C11.6777 11.3942 10.7269 12.3451 10.5349 13.5574C10.5132 13.6941 10.505 13.8524 10.5019 14.1224C11.4088 14.0598 11.9324 13.9166 12.3321 13.6262C12.5726 13.4514 12.7841 13.2399 12.9589 12.9994C13.2492 12.5997 13.3925 12.0761 13.455 11.1692Z" fill="#1565C0"/>
<path d="M5.33333 6.00065C5.33333 6.36884 5.03486 6.66732 4.66667 6.66732C4.29848 6.66732 4 6.36884 4 6.00065C4 5.63246 4.29848 5.33398 4.66667 5.33398C5.03486 5.33398 5.33333 5.63246 5.33333 6.00065Z" fill="#1565C0"/>
<path d="M5.33333 8.66732C5.33333 9.03551 5.03486 9.33398 4.66667 9.33398C4.29848 9.33398 4 9.03551 4 8.66732C4 8.29913 4.29848 8.00065 4.66667 8.00065C5.03486 8.00065 5.33333 8.29913 5.33333 8.66732Z" fill="#1565C0"/>
<path d="M8.66667 6.00065C8.66667 6.36884 8.36819 6.66732 8 6.66732C7.63181 6.66732 7.33333 6.36884 7.33333 6.00065C7.33333 5.63246 7.63181 5.33398 8 5.33398C8.36819 5.33398 8.66667 5.63246 8.66667 6.00065Z" fill="#1565C0"/>
<path d="M8.66667 8.66732C8.66667 9.03551 8.36819 9.33398 8 9.33398C7.63181 9.33398 7.33333 9.03551 7.33333 8.66732C7.33333 8.29913 7.63181 8.00065 8 8.00065C8.36819 8.00065 8.66667 8.29913 8.66667 8.66732Z" fill="#1565C0"/>
<path d="M8.66667 11.334C8.66667 11.7022 8.36819 12.0007 8 12.0007C7.63181 12.0007 7.33333 11.7022 7.33333 11.334C7.33333 10.9658 7.63181 10.6673 8 10.6673C8.36819 10.6673 8.66667 10.9658 8.66667 11.334Z" fill="#1565C0"/>
<path d="M12 6.00065C12 6.36884 11.7015 6.66732 11.3333 6.66732C10.9651 6.66732 10.6667 6.36884 10.6667 6.00065C10.6667 5.63246 10.9651 5.33398 11.3333 5.33398C11.7015 5.33398 12 5.63246 12 6.00065Z" fill="#1565C0"/>
<path d="M12 8.66732C12 9.03551 11.7015 9.33398 11.3333 9.33398C10.9651 9.33398 10.6667 9.03551 10.6667 8.66732C10.6667 8.29913 10.9651 8.00065 11.3333 8.00065C11.7015 8.00065 12 8.29913 12 8.66732Z" fill="#1565C0"/>
<path d="M5.33333 11.334C5.33333 11.7022 5.03486 12.0007 4.66667 12.0007C4.29848 12.0007 4 11.7022 4 11.334C4 10.9658 4.29848 10.6673 4.66667 10.6673C5.03486 10.6673 5.33333 10.9658 5.33333 11.334Z" fill="#1565C0"/>
</svg>
